<svg width="1257" height="340" viewBox="0 0 1257 340" fill="none" xmlns="http://www.w3.org/2000/svg">
<g clip-path="url(#clip0_1023_2)">
<path fill-rule="evenodd" clip-rule="evenodd" d="M481.792 47.4956C481.702 55.4175 481.667 60.9432 481.541 68.7936L365.292 77.0911L368.301 79.9523C369.626 79.6662 378.543 78.7005 380.996 78.486C380.28 80.006 378.382 82.9566 378.382 82.9566L363.896 84.2441C363.896 84.0117 368.301 79.9523 368.301 79.9523L365.292 77.0911L358.488 83.7255C355.712 84.0832 346.938 85.0131 345.183 85.1561C345.183 85.1561 344.986 89.3228 344.986 89.3585C350.358 88.7863 401.732 85.335 401.732 85.335C401.732 85.335 402.502 82.4559 402.699 81.2577L399.923 81.7585C399.923 81.7585 400.998 78.2714 401.553 76.8586L416.362 75.7142C416.147 76.6977 414.947 80.4709 414.947 80.4709C414.947 80.4709 405.6 81.2399 402.699 81.2756C402.592 81.83 401.732 85.335 401.732 85.335L463.509 80.614L463.671 76.6441L453.446 77.3594C453.947 76.4652 455.237 72.8172 455.237 72.8172C459.194 72.3701 465.497 72.0483 469.562 71.78C469.204 72.9245 467.771 76.501 467.771 76.501L463.724 76.6441C463.724 76.9302 463.563 80.614 463.563 80.614C469.83 80.2206 475.757 80.31 481.684 80.006C481.488 98.8184 481.201 122.62 481.273 135.925C481.147 142.416 481.058 150.785 481.04 152.305C485.445 152.305 501.041 151.178 504.497 152.144C504.497 142.005 503.405 132.366 503.566 122.316C503.566 119.616 503.656 116.951 503.674 114.269L503.763 104.666C504.05 81.9015 503.638 115.521 503.853 84.9952C503.763 81.4187 503.853 83.9044 503.853 81.5439L509.046 81.0789L503.459 80.7928C503.459 78.4681 502.975 65.9861 503.871 65.092C504.766 64.1978 503.96 64.8237 505.482 64.5912L521.706 63.715C524.499 63.715 528.188 63.572 530.927 63.3931C534.149 63.3246 537.365 63.0858 540.561 62.6778C539.827 66.755 540.561 77.5561 539.594 79.8629L544.751 79.4695L541.17 79.2191C541.17 76.3043 541.17 73.3537 541.17 70.4209L541.295 63.411C541.564 62.7672 540.364 63.0355 541.618 63.1249C542.101 62.499 550.41 62.4632 551.609 62.4632C553.669 62.4632 555.191 62.0162 557.322 62.0877C561.315 62.195 560.724 62.2844 561.959 61.7122L562.604 61.3009C562.227 61.0958 561.878 60.8434 561.565 60.5498L541.618 61.587C540.937 60.0133 541.331 47.281 541.797 45.0993C567.94 44.1516 594.101 43.3111 620.209 41.9878C619.887 51.5907 620.209 27.6818 620.012 59.763H617.738C617.362 58.7616 617.559 59.5305 617.487 58.3503V52.8067C616.234 56.2759 615.088 59.7987 615.088 59.7987H613.817C613.149 57.4408 612.36 55.1189 611.453 52.8424L611.56 59.9954C612.807 60.2153 614.08 60.2575 615.339 60.1206C617.022 60.1206 617.899 60.2458 619.565 60.2637C619.156 65.935 619.078 71.6253 619.332 77.3057C627.282 77.6097 637.238 77.3057 645.171 77.0017C653.838 76.7335 662.289 76.7156 670.92 76.6619C704.943 76.4116 741.042 76.6619 775.047 77.1627C783.606 77.3057 792.416 77.6991 800.796 77.6634C809.642 77.6634 818.703 78.6111 827.495 78.4323L827.835 61.7658C869.7 63.2679 858.562 63.7329 877.024 63.7865C880.462 63.7865 883.506 64.1978 886.998 64.2515L886.676 98.7826C876.755 98.6932 876.738 97.3878 871.706 97.3878C869.539 97.3878 867.928 97.0838 865.868 97.048V98.5859H870.47C870.47 99.4264 869.664 98.8005 873.335 99.1402L886.747 99.9271L886.389 115.27C879.227 115.27 871.491 114.215 865.94 114.698C865.6 140.234 865.635 165.842 865.421 191.414C865.295 206.471 862.663 317.986 863.147 318.612H883.184C883.184 276.213 884.205 234.475 883.524 200.069H867.874C867.874 197.941 868.16 186.174 868.16 186.174C868.286 186.568 884.276 186.693 885.906 186.747C886.031 181.078 885.798 173.013 885.906 166.879L887.32 167.004L883.148 166.629V168.024L867.749 167.523V136.461C870.685 136.461 892.298 137.212 892.298 137.284C892.298 133.904 892.298 133.385 892.298 133.385C883.56 133.385 877.239 133.385 868.465 133.028V117.81C872.44 118.06 876.666 117.81 880.999 117.81C880.961 119.463 881.02 121.117 881.178 122.763C881.178 122.763 994.616 131.704 1004.73 133.171C1007.71 133.618 1011.13 134.387 1013.47 134.583L1030.93 137.069C1030.93 135.281 1025.56 135.549 1022.98 134.959C985.269 129.308 947.325 125.284 908.378 121.744L887.374 119.526C886.747 116.862 887.213 104.04 887.374 100.231C887.249 94.4371 888.269 54.7201 887.374 53.1286C886.694 55.4354 887.607 61.0684 886.264 63.6971C882.79 63.6971 879.406 62.5526 876.093 63.0534C873.371 63.4825 873.514 62.8745 871.294 62.6242L866.674 62.3381C865.886 59.7987 866.406 56.2938 866.441 53.522V47.12C866.352 45.3318 867.05 46.0829 867.999 46.1007L886.497 46.6372C886.246 45.5822 886.031 47.6029 886.497 45.8146C886.711 45.0457 886.676 45.4033 886.801 45.4033L851.095 43.6151C851.095 43.6151 850.791 43.4363 804.216 41.9341C727.003 39.6094 649.415 39.7703 572.148 42.5064C564.681 42.7746 556.766 43.3826 549.407 43.4005C542.047 43.4184 534.652 44.4556 527.113 44.6165C522.511 44.7059 481.81 47.4598 481.81 47.4598M504.032 47.0843C507.084 47.0954 510.133 46.9222 513.164 46.5657L522.475 46.1007C525.931 46.1007 528.976 46.2796 532.449 45.9398C535.147 45.6148 537.863 45.4714 540.579 45.5106L540.024 61.6943C534.383 61.6943 527.668 62.4275 521.795 62.6063C520.004 62.6063 518.429 63.1428 516.96 63.1428C515.492 63.1428 514.489 62.8388 512.752 62.9461C509.457 63.1607 506.664 63.4468 503.316 63.715C503.763 59.5484 503.817 47.8711 504.014 47.12L504.032 47.0843ZM801.28 55.5785C801.28 56.6157 801.28 60.5677 801.28 60.5677C801.28 60.5677 798.665 60.5677 797.931 60.5677C798.612 61.4439 797.591 60.8717 799.31 61.1936H805.094C807.69 61.1936 810.233 61.0326 812.4 61.1042C817.163 61.2472 821.693 61.7301 826.617 61.8195L826.367 77.1448C823.752 75.3565 789.085 76.1433 788.942 76.1255C788.826 76.1856 788.706 76.2393 788.584 76.2864C788.584 73.8544 788.584 62.1413 788.96 60.4425C788.719 60.3827 788.467 60.3827 788.226 60.4425C788.226 60.4425 788.351 52.002 788.369 51.8053L785.522 51.8589V49.2481L794.189 49.5342C792.503 49.0919 790.784 48.7869 789.049 48.6222L789.229 43.2574C790.357 42.864 805.846 43.2574 808.442 43.4184L817.664 43.9012C819.132 43.9012 826.098 44.2052 826.492 44.7417H826.886L826.778 55.4712C826.778 61.6943 828.193 61.0326 822.517 60.8359C819.294 60.8359 802.211 59.9597 801.387 60.5498C801.333 59.298 801.315 57.3667 801.351 55.6142L801.28 55.5785ZM748.294 59.5842L744.713 58.9583C744.48 58.4218 744.588 58.7079 744.462 58.386C744.337 58.0641 744.14 57.3846 744.015 56.9197C743.28 54.3446 741.633 50.2852 741.723 48.5328H744.516L746.701 55.4354C749.476 51.3582 746.217 48.2824 751.625 48.4255L748.294 59.5842ZM700.77 52.7352V53.8796C699.314 54.0556 697.85 54.1512 696.383 54.1658V56.7051H701.146L701.254 59.1013L689.543 59.2265C688.827 57.6435 687.957 56.1342 686.947 54.7201L686.803 59.155L684.171 59.298C684.171 59.298 684.171 51.1973 684.171 48.4255C690.653 47.1558 693.626 50.321 689.865 53.8796C690.653 55.0062 693.447 59.2444 693.447 59.2444C693.447 56.5799 693.662 51.3761 693.608 48.3539L701.129 48.2288V50.5177L696.383 50.6787C696.344 51.3696 696.344 52.0621 696.383 52.753C696.383 52.753 699.589 52.6457 700.842 52.7709L700.77 52.7352ZM756.281 51.3224C756.495 53.1107 756.388 52.5921 758.286 52.6636C760.739 52.7709 760.471 52.1987 760.811 54.0585C760.148 55.3281 761.08 54.9168 758.68 55.0241C757.265 55.0241 757.516 54.7022 756.281 55.1672V56.6872C757.606 57.331 759.486 56.9733 761.187 57.2773V59.602L753.075 59.4947L753.308 48.6579C755.564 48.3539 759.45 48.1572 761.115 49.0692V50.6071C759.808 51.2688 758.841 50.8217 757.534 50.9827L756.567 51.2151C756.491 51.2553 756.419 51.3033 756.352 51.3582L756.281 51.3224ZM777.428 57.9747C777.876 55.3639 776.103 56.0613 774.098 54.8811C773.742 54.698 773.43 54.4427 773.179 54.1317C772.929 53.8207 772.746 53.4608 772.643 53.0751C772.54 52.6894 772.519 52.2865 772.582 51.8923C772.644 51.4981 772.788 51.1212 773.005 50.786C774.491 48.2288 780.168 47.8711 780.365 52.449C775.906 52.449 777.894 50.8396 775.333 51.1794C775.888 53.9333 783.23 53.1286 779.917 58.6006C778.126 61.4976 771.555 61.2651 772.199 56.4011L774.402 56.2759C775.53 57.331 775.351 58.2251 777.5 58.0105L777.428 57.9747ZM660.105 52.8246C660.696 52.8246 664.689 52.8246 664.707 52.8246V54.3625C664.707 54.3625 661.376 54.3625 660.123 54.3625C660.123 55.6679 660.123 56.9375 660.123 56.9375L665.083 56.8481V59.0834L657.204 59.2265C657.204 57.0091 657.383 48.497 657.383 48.497L665.154 48.3718V50.4462L660.32 50.5893C660.32 50.5893 660.194 52.8424 660.176 52.8603L660.105 52.8246ZM668.789 59.1729H666.497C666.497 59.0477 666.587 48.5506 666.587 48.5506C666.587 48.5506 668.234 48.5506 669.882 48.5506L671.672 54.0406L673.32 48.6758H677.098C677.098 50.4641 677.098 59.298 677.098 59.298H674.788L674.627 52.4669C674.627 52.6457 671.672 59.3338 671.672 59.3338C671.672 59.3338 669.112 53.969 668.825 52.8424L668.789 59.1729ZM771.429 59.8882H768.188C767.687 58.9404 766.989 56.3117 765.95 55.8646L765.753 59.7272H762.799L763.282 48.9977C765.073 48.5149 770.677 47.9069 770.695 51.9841C770.695 54.8095 769.03 53.665 769.693 55.9361C769.979 57.027 771.053 58.2072 771.501 59.9239L771.429 59.8882ZM730.03 59.3696H727.487C726.771 58.0463 727.308 49.3732 727.487 48.497L730.388 48.2288C731.161 50.1582 732.21 51.9654 733.504 53.5935L733.665 48.3182H736.422L736.333 59.2444C730.746 59.6736 733.074 56.7587 730.155 53.8796L730.03 59.3696ZM634.624 59.4947L631.687 59.5842C631.777 57.2773 631.687 50.1958 632.26 48.6222C634.481 48.2109 634.695 48.193 635.627 49.9276C635.949 50.5177 636.182 50.9827 636.576 51.7159L638.187 53.6472C638.187 50.2853 637.202 47.8353 640.873 48.6222L640.784 59.3517L637.686 59.7272C637.014 57.742 636.009 55.8855 634.713 54.2373L634.624 59.4947ZM647.284 59.3159L647.517 48.6758C649.773 48.6758 656.201 47.2452 655.951 54.5413C655.861 59.0119 650.901 59.4769 647.355 59.3517L647.284 59.3159ZM716.492 48.2824H719.232C719.232 51.0363 718.874 54.5413 719.644 56.6335C722.151 57.027 722.33 56.723 722.366 54.1658C722.306 52.225 722.389 50.2824 722.616 48.3539H725.392C725.499 53.969 726.251 59.0834 721.023 59.5305C718.193 59.7451 716.94 59.0477 716.385 56.4011C716.091 53.7005 716.128 50.9743 716.492 48.2824ZM620.836 59.8703L624.596 48.6937H627.658C628.321 50.482 628.858 52.5384 629.449 54.3088C629.717 55.1672 630.04 56.0971 630.362 56.9197C630.555 57.3749 630.723 57.8406 630.863 58.3145V59.602L628.142 59.7272L627.443 57.939H624.704C623.003 60.0133 625.241 59.8524 620.836 59.8882V59.8703ZM679.032 48.1572H681.897L681.754 59.0119L679.032 59.155V48.1572ZM702.776 48.0499H705.731L705.623 56.3117L710.064 56.5084L710.243 59.2086H702.704L702.776 48.0499ZM737.873 48.8368C738.739 48.4684 739.703 48.3991 740.612 48.6401V59.5126L737.479 59.6378L737.873 48.8368ZM781.941 49.3911L784.788 49.2481L784.877 60.2279H781.887L781.941 49.3911ZM482.759 48.3897L502.886 47.4956L502.366 63.5898L482.669 64.5734L482.759 48.3897ZM471.424 76.501L473.215 71.5654L481.81 70.6713L481.595 75.8572L471.424 76.501ZM435.611 78.7363C436.112 77.3951 436.972 74.3193 436.972 74.3193L452.013 73.1927C451.512 74.3909 450.545 77.4845 450.545 77.4845C445.746 77.8243 440.661 78.325 435.683 78.6827L435.611 78.7363ZM433.265 79.0045C433.033 79.0045 417.722 80.4173 417.275 80.4351L419.065 75.4102C424.043 74.981 433.946 74.373 434.393 74.373L433.265 79.0045ZM397.094 81.6333L383.79 82.5989L386.261 78.1641L398.58 77.3236C398.311 78.8187 397.835 80.2691 397.166 81.6333H397.094ZM867.695 169.436C873.855 169.651 876.379 169.705 883.059 169.776C882.969 173.996 883.059 184.386 883.059 184.386C876.397 183.903 874.105 183.868 867.695 183.51C867.91 178.825 867.748 174.443 867.766 169.436H867.695ZM867.605 202.716C868.698 202.716 880.91 202.823 880.91 202.823C880.91 207.204 880.91 216.897 881.089 217.129C880.355 216.914 868.644 217.129 867.498 216.95C867.713 216.503 867.677 202.716 867.677 202.716H867.605Z" fill="#1F2150"/>
<path fill-rule="evenodd" clip-rule="evenodd" d="M899.837 151.858C905.872 164.179 912.372 174.355 919.624 186.068C923.062 191.254 925.981 196.618 929.472 201.894C932.714 206.758 942.867 220.706 942.867 220.706C943.046 221.028 941.864 303.109 941.72 318.863L946.627 318.756C947.236 294.471 949.044 220.742 949.044 220.742C949.044 220.742 910.223 153.021 909.65 151.465L1023.79 162.963L1023.59 320.097C1025.94 319.933 1028.3 319.975 1030.64 320.222C1030.91 318.327 1030.64 184.101 1030.64 184.101L1064.13 189.662C1064.13 189.662 1063.79 175.356 1063.84 174.516L1030.61 168.99C1030.29 164.233 1032.06 137.195 1030.98 137.052L1013.51 134.566C1011.16 134.369 1007.74 133.6 1004.77 133.153C1001.8 132.706 998.591 132.331 995.995 131.884C988.295 130.596 940.736 125.643 932.678 125.124C929.401 124.909 926.5 124.266 923.724 124.248C919.463 124.248 902.076 122.227 896.238 121.422C894.981 121.225 893.713 121.1 892.442 121.047C892.334 122.692 892.299 150.481 892.245 151.322C894.779 151.324 897.31 151.503 899.819 151.858" fill="#1F2150"/>
<path d="M598.721 142.113C595.283 142.685 591.809 143.275 588.371 143.901C585.85 142.671 583.522 141.08 581.459 139.18C581.418 135.726 581.919 132.286 582.946 128.987C582.946 128.987 588.443 140.7 598.721 142.113ZM664.098 88.6264C658.241 88.5737 652.395 89.1371 646.657 90.3074C646.657 90.3074 649.164 95.082 649.164 104.756V128.433C649.164 135.21 647.373 136.82 647.373 136.82H647.516C650.668 136.623 653.909 136.498 657.132 136.426V105.722C657.132 99.4096 656.362 95.2072 655.646 94.1164C658.354 93.6487 661.099 93.4332 663.847 93.4726C677.223 93.4726 687.376 99.7315 687.376 115.075C687.376 126.502 684.887 131.652 676.221 134.048L677.241 135.425C680.464 135.425 677.367 136.373 680.59 136.444C684.925 134.891 688.664 132.02 691.281 128.235C693.899 124.45 695.263 119.942 695.184 115.343C695.237 98.3545 680.572 88.6264 664.098 88.6264ZM727.863 129.148V89.145L718.372 88.9483C719.538 94.5271 720.055 100.222 719.912 105.919V125.411C719.713 130.282 720.959 135.103 723.494 139.27C726.86 139.663 730.155 140.11 733.521 140.557C731.662 139.315 730.162 137.608 729.169 135.606C728.176 133.604 727.726 131.378 727.863 129.148ZM752.538 89.8067V129.148C752.538 136.176 748.599 140.825 743.245 142.113C746.271 142.632 749.243 143.15 752.287 143.722C757.265 140.146 760.489 134.12 760.489 125.464V90.0391C757.838 89.914 755.188 89.8424 752.538 89.7888V89.8067ZM604.398 114.449C595.158 109.942 591.415 107.492 591.415 102.521C591.415 97.9432 595.928 94.1879 602.517 94.1879C605.383 94.0687 608.226 94.7254 610.748 96.0885C613.27 97.4516 615.376 99.4704 616.843 101.931C616.868 98.7713 616.452 95.6234 615.607 92.5785C615.607 92.5785 611.704 89.4133 602.517 89.4133C592.83 89.4133 584.378 95.4039 584.378 103.719C584.378 112.035 589.75 116.559 599.097 120.94C608.445 125.321 613.243 128.433 613.243 133.261C613.244 134.816 612.77 136.334 611.883 137.612C610.997 138.89 609.741 139.868 608.283 140.414C611.578 139.967 614.873 139.52 618.221 139.127C619.892 136.821 620.8 134.051 620.818 131.205C620.818 123.265 613.637 118.955 604.398 114.449Z" fill="#1F2150"/>
<path fill-rule="evenodd" clip-rule="evenodd" d="M1069.79 181.436V189.769L1069.54 208.009C1069.07 212.462 1069.34 220.849 1069.16 226.106C1068.98 231.364 1069.16 234.618 1068.96 235.674L1069.07 236.442C1068.73 240.397 1068.63 244.368 1068.78 248.334C1068.78 252.555 1068.78 256.775 1068.66 260.995C1068.55 265.949 1067.76 268.148 1069.77 272.351C1071.17 275.265 1072.13 278.323 1073.53 281.167C1076.23 286.674 1078.76 292.254 1081.43 298.173L1087.48 310.869C1089.02 313.874 1088.3 314.446 1090.25 315.018H1091.67C1090.47 313.534 1090.86 314.839 1090.18 312.908V311.656C1091.13 307.204 1090.88 272.78 1091.06 265.001C1091.19 259.94 1090.95 253.878 1091.36 248.907V242.451L1092.22 197.745C1100.64 197.459 1117.94 199.944 1126.93 202.394C1128.36 202.72 1129.78 203.12 1131.17 203.592C1132.5 204.129 1133.87 205.273 1134.66 205.381C1135.09 205.438 1135.51 205.571 1135.9 205.774C1135.45 208.778 1134.7 207.187 1135.09 209.601L1142.26 209.315L1142.43 201.232C1140.39 200.105 1137.78 201.232 1136.15 199.837H1142.4V191.54C1140.02 191.54 1139.05 191.128 1136.44 191.11C1135.36 189.948 1135.9 192.112 1135.83 190.324L1135.18 189.859C1134.72 190.628 1135.27 190.18 1134.68 190.61C1134.49 189.144 1134.59 187.654 1134.99 186.228L1132.28 183.51C1129.74 181.293 1116.27 179.022 1111.8 178.396C1108.04 177.859 1104.35 177.269 1100.53 176.84C1093.96 176.089 1095.59 176.715 1090.04 175.052C1086.62 174.551 1080.16 171.046 1076.36 170.134C1076.82 174.927 1076.36 202.984 1076.07 210.209L1075.75 237.033C1075.75 239.179 1075.52 241.396 1075.59 243.578C1075.59 245.062 1075.68 245.366 1075.59 246.689L1074.75 277.179C1073.77 275.813 1073 274.313 1072.46 272.726C1071.11 269.543 1071.24 271.081 1071.47 267.612V253.771C1071.99 226.947 1072.87 195.706 1072.47 168.9L1069.61 167.988C1069.61 167.988 1069.61 178.718 1069.61 181.472" fill="#1F2150"/>
<path fill-rule="evenodd" clip-rule="evenodd" d="M541.528 63.1971C540.275 63.1076 541.528 62.8394 541.206 63.4832L541.081 70.4931C541.081 73.4258 541.081 76.3765 541.081 79.2913L544.662 79.5417L619.368 77.5031C619.114 71.8227 619.192 66.1324 619.601 60.461C617.935 60.461 617.04 60.2286 615.375 60.318C614.116 60.4548 612.844 60.4127 611.596 60.1928C607.335 59.8173 609.448 53.8266 609.519 49.1056C609.519 49.1056 611.113 49.1056 613.226 49.1056L614.712 54.8459L616.127 48.7838C616.127 48.7838 618.741 48.6407 620.048 48.6049C620.156 48.6049 620.048 45.6543 620.156 42.0957C594.048 43.4905 567.887 44.2595 541.743 45.2073C541.296 47.4605 540.902 60.1213 541.564 61.6949C590.646 63.1613 540.132 60.7114 541.564 63.2328" fill="#1F2150"/>
<path fill-rule="evenodd" clip-rule="evenodd" d="M623.827 183.725C600.28 184.207 576.84 184.046 553.508 184.494C554.582 185.817 576.249 203.181 576.249 203.181C596.233 203.574 773.328 201.017 773.328 201.017L773.74 184.082L685.3 183.85C664.761 183.85 644.347 183.85 623.827 183.725Z" fill="#1F2150"/>
<path fill-rule="evenodd" clip-rule="evenodd" d="M1155.27 218.578C1157.55 218.578 1172.25 224.05 1176.03 225.123C1209.39 234.618 1208.13 231.471 1216.24 234.297C1218.95 235.227 1231.3 239.983 1233.31 240.037C1235.1 240.502 1233.72 240.18 1234.26 239.876V227.197L1202.21 213.928C1197.21 212.569 1198.25 210.638 1197.78 216.808C1195.99 216.557 1170.92 206.364 1166.55 204.755C1163.99 203.807 1158.12 201.178 1156.08 201.035C1154.88 201.876 1155.9 216.056 1155.2 218.578" fill="#1F2150"/>
<path fill-rule="evenodd" clip-rule="evenodd" d="M788.996 48.694C788.638 50.3929 788.638 74.0156 788.656 76.4477C788.772 76.392 788.891 76.3442 789.014 76.3046C792.738 76.3046 825.077 76.3046 826.438 77.306L826.689 61.9807C821.765 61.9807 817.234 61.4085 812.471 61.2654C764.267 59.7812 814.262 60.7289 822.481 60.8899C828.157 61.0151 826.689 61.6946 826.743 55.5251L826.85 44.7956H826.456C826.062 44.2592 819.097 43.9552 817.628 43.9552L808.406 43.4723C805.81 43.365 790.321 42.918 789.193 43.3114L789.014 48.6761C791.342 48.5867 797.304 50.4644 789.014 48.6761" fill="#1F2150"/>
<path fill-rule="evenodd" clip-rule="evenodd" d="M781.69 184.422C784.949 184.422 814.405 184.976 814.441 185.191L813.743 215.126L816.411 214.822C816.715 214.554 817.216 186.568 817.216 186.568C822.069 186.461 824.379 186.335 824.379 186.335C824.379 186.335 824.522 182.222 824.379 174.712C823.931 174.712 821.21 174.712 821.21 174.712L820.493 182.491L785.003 182.276L784.483 164.107C784.018 164.107 781.959 164.107 781.421 164.107L781.69 184.422Z" fill="#1F2150"/>
<path fill-rule="evenodd" clip-rule="evenodd" d="M348.604 85.4434L345.166 85.9441C344.378 99.9818 340.814 160.657 340.098 177.359L345.918 177.181C346.186 167.095 348.264 94.3131 348.604 85.4434Z" fill="#1F2150"/>
<path fill-rule="evenodd" clip-rule="evenodd" d="M744.427 152.412L744.534 164.179H748.617L748.492 152.001C761.939 152.126 773.113 152.18 786.597 152.412C786.597 156.579 786.597 160.746 786.364 164.93H788.047C788.047 164.93 788.047 163.285 788.047 162.588L862.592 166.307C862.592 166.307 862.592 167.845 862.592 168.274C862.592 168.703 831.345 167.219 788.047 164.877V152.466C788.047 152.198 862.413 154.254 862.413 154.254C862.413 154.254 862.413 163.196 862.52 168.274L864.311 168.525L864.454 151.644L699.714 148.604C702.114 152.18 701.881 151.536 701.881 151.536C701.881 151.536 719.787 152.091 744.158 152.341" fill="#1F2150"/>
<path fill-rule="evenodd" clip-rule="evenodd" d="M578.254 164.232C587.763 164.375 597.952 164.232 607.478 163.946C612.348 163.839 617.219 163.946 622.072 163.785C625.76 163.785 636.665 163.374 636.665 163.374C636.952 163.088 649.737 150.069 649.934 149.712L639.19 149.443C639.19 149.747 639.298 151.124 639.298 151.124H646.747C646.586 151.375 641.751 156.382 641.751 156.382L638.725 155.327C638.725 155.327 630.416 162.337 630.112 162.48L618.669 162.837H578.344L578.254 164.232Z" fill="#1F2150"/>
<path fill-rule="evenodd" clip-rule="evenodd" d="M1133.02 233.17C1132.89 237.694 1132.89 242.415 1132.8 247.476V247.869L1132.53 254.486L1133.95 254.861L1134.23 250.444C1136.53 250.403 1138.83 250.517 1141.11 250.784L1141.75 257.114H1134.2L1133.91 256.184L1132.62 255.505L1132.48 261.782L1134.27 262.229L1134.18 257.418L1141.47 257.847C1141.47 257.847 1141.34 261.764 1141.34 263.91L1134.18 263.713V263.302L1132.39 262.711C1132.39 264.5 1132.39 273.691 1132.07 275.319L1131.83 275.855L1132.19 276.374V277.769V284.027V285.082L1131.99 291.073C1131.53 291.073 1128.91 291.073 1128.74 290.572C1128.74 290.429 1128.54 290.465 1128.45 290.411L1122.45 289.768V283.419L1122.27 276.678L1122.13 275.801C1121.88 273.566 1122.52 270.222 1122.33 268.505H1121.98C1121.56 269.758 1121.39 271.084 1121.48 272.404C1121.48 277.035 1121.2 275.247 1120.84 276.392C1120.21 278.359 1120.09 299.996 1120.59 302.321C1120.16 308.044 1121.41 310.476 1121.39 305.379C1121.61 304.467 1121.39 304.95 1121.73 304.503C1122.3 302.773 1122.47 300.943 1122.25 299.138C1125.44 298.882 1128.65 299.141 1131.76 299.907C1131.76 299.907 1131.58 298.924 1131.76 300.014C1131.76 300.14 1131.76 300.247 1131.76 300.372L1131.56 306.041H1127.02L1131.78 306.398L1131.51 313.551C1132.32 314.428 1130.69 314.142 1133.14 314.392C1132.66 312.604 1133.28 300.39 1133.28 300.39C1133.28 300.39 1154.4 300.175 1154.68 300.175C1154.56 300.086 1154.81 299.71 1154.54 299.639C1154.27 299.567 1142.94 299.549 1141.7 299.639C1141.56 297.69 1141.7 295.633 1141.43 293.273L1153.82 293.004V292.271C1153.82 292.271 1141.49 292.271 1141.29 292.271L1141.2 285.994C1142.15 285.994 1151.94 285.995 1152.41 285.851V290.555H1154.09L1153.97 289.16V288.14V282.257L1154.06 281.613V275.855L1153.95 275.104L1154.16 269.739V268.076V251.642C1154.45 248.584 1154.38 245.258 1154.59 241.968L1192.32 251.821C1193.94 252.351 1195.62 252.658 1197.32 252.733L1197.94 233.724C1197.71 231.936 1198.77 231.703 1196.89 232.043L1198.5 251.714C1187.76 248.513 1168.52 243.863 1155.04 240.251V239.16H1145.17V234.01H1143.28V239.214C1140.93 239.214 1134.32 238.981 1134.32 238.981C1134.32 238.981 1134.32 236.621 1134.32 233.831C1134.32 233.831 1148.65 234.117 1154.95 234.171L1155.11 227.394C1154.18 226.321 1153.91 228.735 1154.43 225.981C1154.37 225.899 1154.32 225.809 1154.29 225.713L1153.75 223.102C1153.64 224.89 1153.75 224.05 1153.18 224.514C1150.96 226.303 1153.36 224.783 1150.55 224.514C1148.59 224.282 1149.51 223.799 1147.88 224.514L1146.43 224.962C1145.5 224.962 1146.61 224.497 1145.98 224.962C1145.85 225.287 1145.61 225.559 1145.3 225.736C1145 225.914 1144.65 225.987 1144.3 225.945C1142.51 225.802 1143.9 225.176 1141.77 225.444C1139.16 225.802 1137.03 225.444 1134.48 225.766C1134.63 223.781 1135.25 223.871 1135.38 221.993C1135.04 221.707 1134.34 221.689 1134.11 221.6C1134.11 225.498 1133.23 220.241 1133 224.997C1132.82 228.288 1133.16 229.486 1133 233.456M1142.92 226.821C1143.01 228.896 1142.92 233.027 1142.92 233.027H1134.64V226.911L1142.92 226.821ZM1134.45 249.228C1134.45 249.139 1134.54 243.72 1134.61 241.914H1143.22V249.246L1134.45 249.228ZM1153.82 257.919C1153.59 257.579 1154 257.454 1152.03 257.365C1151.15 257.365 1150.53 257.365 1149.67 257.365C1148.07 257.365 1146.64 257.365 1145.03 257.365C1143.42 257.365 1140.93 258.187 1142.36 250.909C1146.68 250.516 1149.63 251.696 1154.34 251.159L1153.82 257.919ZM1153.63 278.967L1133.93 278.233L1134.18 264.929C1134.18 264.929 1147.14 264.929 1153.68 265.287V264.196L1142.4 264.035C1142.49 262.247 1142.02 258.187 1142.06 258.098C1144.73 258.098 1152.01 258.652 1153.73 258.098L1153.63 278.967ZM1141.57 280.379C1141.57 280.379 1141.57 282.883 1141.57 284.85C1141.57 284.85 1134.04 285.082 1134 285.047V278.233V280.022C1135.95 279.664 1141.59 280.093 1141.59 280.093L1141.57 280.379ZM1133.73 293.201C1133.73 293.201 1139.37 293.201 1140.41 293.434V299.371C1137.98 299.371 1133.86 299.371 1133.5 299.371C1133.5 299.371 1133.68 296.688 1133.8 292.915C1133.8 290.465 1133.93 286.334 1133.95 286.173C1133.96 286.012 1138.14 286.012 1140.37 286.173L1140.29 292.361C1140.29 292.361 1133.91 292.361 1133.82 292.361C1133.73 292.361 1133.82 292.951 1133.75 292.915L1133.73 293.201ZM1122.47 290.948L1132.05 291.735L1131.87 298.709L1122.4 297.994C1122.38 296.617 1122.49 290.662 1122.49 290.662L1122.47 290.948Z" fill="#1F2150"/>
<path fill-rule="evenodd" clip-rule="evenodd" d="M181.285 217.309C181.285 217.827 181.285 243.22 181.285 243.238L182.79 242.988C182.79 242.988 183.237 230.47 183.327 230.148L189.594 230.023C189.594 230.184 189.307 243.971 189.307 243.971L181.482 244.615L181.035 249.193C181.477 249.069 181.903 248.895 182.306 248.675C182.306 248.675 182.431 245.635 182.485 245.581C185.816 246.26 186.478 246.582 189.433 245.116C189.54 246.904 189.272 257.437 189.433 257.884L181.805 259.422L181.93 261.013C181.93 261.013 184.849 260.656 185.225 260.674V266.182C185.225 268.202 185.225 270.277 185.117 272.297C185.714 272.259 186.312 272.259 186.908 272.297C186.908 272.297 186.908 270.384 186.908 266.199V259.404C191.259 258.796 193.963 257.777 198.798 257.83C199.908 260.459 198.798 268.828 199.532 270.348C200.177 269.919 200.195 270.992 199.962 268.059V257.33C202.884 257.339 205.804 257.148 208.7 256.757C208.816 258.806 208.816 260.86 208.7 262.909V267.97C209.094 269.579 208.038 268.256 209.434 269.096C210.562 267.719 209.846 271.063 209.9 265.717L218.853 265.556V268.685H219.749V255.005C223.391 254.539 227.054 254.259 230.725 254.164L230.564 252.376L190.83 257.598L191.259 244.955C191.259 244.955 199.192 243.775 199.317 243.793L199.836 256.31L200.839 256.167C201.018 252.805 200.392 243.775 200.392 243.775C203.139 242.843 206.014 242.342 208.915 242.291V255.273L210.366 255.076C210.366 254.951 210.24 243.721 210.258 242.165C210.562 241.986 295.045 243.31 308.923 243.954L309.03 241.593C309.03 241.897 302.584 241.253 296.406 241.253C296.406 238.088 296.603 229.63 296.406 227.072H294.866C294.866 229.201 294.616 239.59 294.562 241.182C293.201 241.575 280.792 241.182 280.792 241.182L280.935 232.241C280.72 230.452 281.275 230.881 279.485 230.667C278.929 231.954 279.001 238.839 278.929 240.735L271.874 240.288L271.427 230.256C271.081 230.284 270.734 230.284 270.388 230.256C270.388 230.256 270.388 238.642 270.388 239.644L236.366 238.249L236.616 228.485L235.506 228.36C235.22 232.115 235.112 238.446 235.112 238.446C235.112 238.446 230.242 238.732 219.301 238.446C219.462 233.242 219.784 226.178 219.677 224.14L240.037 225.606C243.385 225.41 246.745 225.481 250.082 225.821C263.136 226.876 281.508 227.967 294.544 228.163C294.437 228.038 294.723 226.822 294.544 226.947C286.361 226.286 274.435 225.696 267.04 225.535V215.163L265.786 215.038L265.464 225.767C264.604 225.767 260.898 225.588 260.289 225.481L260.056 214.501C260.056 214.197 258.427 214.501 258.265 214.304L257.854 225.499C255.275 225.338 252.75 225.052 250.154 224.927L250.028 214.34L247.933 214.465C248.112 216.254 247.933 221.44 247.933 223.103C247.359 223.075 246.79 222.992 246.232 222.852L246.322 211.801C245.697 211.738 245.067 211.738 244.442 211.801V221.994L220.322 220.688C220.322 220.688 220.447 211.515 220.411 208.904L209.667 211.103C209.882 209.476 209.864 202.824 209.864 202.824L208.432 203.289C208.432 203.468 208.217 211.229 208.432 211.497L200.821 213.285C200.821 213.285 201.197 201.357 201.036 199.176C201.036 199.176 199.478 199.766 199.64 199.516C199.801 199.265 199.192 211.604 199.174 213.947L190.561 215.735L190.955 201.161L188.86 201.733C188.86 201.965 188.412 216.629 188.412 216.629L181.142 217.112M209.793 212.713C214.126 211.89 214.967 211.89 218.262 211.264V219.258L209.972 220.009C210.169 218.274 209.989 212.91 209.989 212.91L209.793 212.713ZM201.108 214.626L208.396 212.838C208.396 215.199 208.396 225.499 208.396 225.499L201.233 226.804C201.233 226.804 201.144 215.824 201.305 214.823L201.108 214.626ZM190.704 218.203L198.941 216.415C198.834 227.144 199.049 226.894 198.941 227.555H190.901C190.973 225.803 190.991 218.686 190.901 218.453L190.704 218.203ZM182.252 218.596C184.043 218.292 189.236 218.185 189.307 218.185C189.379 218.185 189.612 227.376 189.54 227.537H186.55C185.171 227.537 183.971 227.537 182.61 227.537C182.539 224.873 182.449 218.847 182.449 218.847L182.252 218.596ZM217.421 237.409C214.89 237.789 212.324 237.873 209.775 237.659V229.54C212.487 229.518 215.196 229.739 217.868 230.202C218.027 231.542 217.985 232.898 217.743 234.225L217.421 237.409ZM198.959 229.29V236.443L191.062 236.568C191.062 236.568 191.062 230.613 191.062 229.415C191.223 229.63 198.135 229.576 199.156 229.54L198.959 229.29ZM200.374 242.183V229.469C200.714 229.326 208.288 227.573 208.629 227.466V239.984L200.374 242.183ZM191.17 237.838L199.067 237.695V242.827C196.389 243.296 193.687 243.612 190.973 243.775L191.17 237.838ZM210.025 256.668C213.41 256.668 215.737 255.345 218.728 255.488V264.662H209.506C209.295 261.98 209.47 259.282 210.025 256.65V256.668Z" fill="#1F2150"/>
<path fill-rule="evenodd" clip-rule="evenodd" d="M865.869 97.2454C867.928 97.2454 869.539 97.5852 871.706 97.5852C876.738 97.5852 876.756 98.8906 886.676 98.98L886.998 64.3774C883.417 64.3774 880.462 63.9124 877.024 63.9124C873.21 63.6535 869.385 63.5878 865.564 63.7157L865.654 79.345L865.869 97.2275" fill="#1F2150"/>
<path fill-rule="evenodd" clip-rule="evenodd" d="M220.769 173.729C220.769 175.195 220.769 177.824 220.769 177.824C231.316 178.915 277.371 181.096 298.107 182.241C298.14 181.041 298.037 179.841 297.803 178.664C286.486 177.627 233.536 174.498 220.805 173.711" fill="#1F2150"/>
<path fill-rule="evenodd" clip-rule="evenodd" d="M827.495 78.6821C830.521 78.2708 839.403 79.0398 843.432 79.0934C850.934 79.2007 858.097 79.4868 865.654 79.4689C865.743 77.5555 865.152 69.3832 865.654 63.3747L827.889 62.0156L827.495 78.6821Z" fill="#1F2150"/>
<path fill-rule="evenodd" clip-rule="evenodd" d="M508.92 81.1511L539.469 79.9351C540.507 77.6282 539.702 66.8272 540.436 62.75C537.239 63.158 534.024 63.3968 530.802 63.4653C528.062 63.6441 524.374 63.7335 521.58 63.7872L505.357 64.6634C503.835 64.8959 504.372 64.5204 503.745 65.1641C503.119 65.8079 503.351 78.5403 503.334 80.865L508.92 81.1511Z" fill="#1F2150"/>
<path fill-rule="evenodd" clip-rule="evenodd" d="M1017.91 216.611C1017.73 214.823 1017.3 178.128 1017.3 178.128C1007.01 177.842 970.227 173.836 968.49 174.14L983.066 210.102L972.967 209.494C972.967 209.279 959.018 174.802 959.018 174.802C957.442 174.802 930.242 172.549 930.242 172.549L952.339 212.266C967.541 212.91 1017.97 216.611 1017.97 216.611" fill="#1F2150"/>
<path fill-rule="evenodd" clip-rule="evenodd" d="M1134.63 205.65V207.116C1132.1 206.919 1133.73 207.116 1133.1 207.545C1133.1 217.845 1133.7 210.585 1134.2 214.859C1134.2 214.859 1134.07 214.859 1134.05 214.859C1133.75 215.914 1134.3 214.412 1133.07 215.217C1133.07 221.207 1132.53 220.385 1134.04 221.35C1134.27 221.35 1134.97 221.458 1135.31 221.744C1135.18 223.532 1134.56 223.532 1134.41 225.517C1136.95 225.106 1139.09 225.517 1141.7 225.195C1143.83 224.927 1142.4 225.553 1144.22 225.696C1154.81 226.536 1154.97 228.378 1155.24 218.543C1155.94 216.021 1154.92 201.841 1156.11 201C1155.04 199.391 1155.36 198.801 1155.4 196.547C1155.4 194.902 1155.4 193.257 1155.4 191.665C1128.9 190.253 1140.29 186.48 1132.12 183.779C1135.7 187.356 1134.34 185.854 1134.52 190.932C1136.44 191.236 1135.11 192.327 1142.24 191.88V200.16H1135.99C1137.62 201.483 1140.23 200.428 1142.27 201.555L1142.09 209.637L1134.93 209.924C1134.54 207.509 1135.29 209.101 1135.74 206.097C1135.35 205.894 1134.93 205.76 1134.5 205.703" fill="#1F2150"/>
<path fill-rule="evenodd" clip-rule="evenodd" d="M504.014 47.121C503.817 47.8721 503.763 59.5493 503.298 63.7517C506.646 63.4835 509.44 63.1974 512.735 62.9828C514.525 62.8755 515.546 63.1974 516.943 63.1795C518.339 63.1616 519.933 62.6966 521.777 62.643C527.651 62.4642 534.312 61.8204 540.006 61.731L540.561 45.5473C537.845 45.5081 535.129 45.6515 532.432 45.9765C528.958 46.3163 525.914 46.1196 522.458 46.1375L513.146 46.6024C510.116 46.9589 507.066 47.1321 504.014 47.121Z" fill="#1F2150"/>
<path fill-rule="evenodd" clip-rule="evenodd" d="M480.556 217.629C480.556 222.511 481.094 246.366 479.876 248.923L480.592 249.317C480.592 249.21 480.771 248.977 480.807 249.049C480.843 249.12 480.968 248.852 481.022 248.798L495.616 238.766C497.219 237.371 499.032 236.237 500.988 235.404C502.08 233.795 502.098 235.404 502.205 232.829C502.367 228.376 501.919 226.749 502.205 221.975L571.736 220.687C571.736 220.687 571.736 216.807 571.736 216.646L503.853 217.629C503.853 217.486 503.763 206.059 503.727 203.323L501.077 202.93C501.077 207.758 501.077 212.586 500.934 217.397C493.771 217.397 487.737 217.665 480.574 217.593" fill="#1F2150"/>
<path fill-rule="evenodd" clip-rule="evenodd" d="M553.114 166.522C553.078 165.879 553.078 165.234 553.114 164.591L577.126 164.251V162.016C574.584 162.016 561.172 162.016 551.413 162.123L551.574 166.558C551.574 166.558 552.863 166.558 553.114 166.558" fill="#1F2150"/>
<path fill-rule="evenodd" clip-rule="evenodd" d="M54.6505 244.042C54.6505 247.994 54.6505 251.964 54.6505 255.934C54.6505 259.511 54.3819 264.035 54.5073 267.361H55.904C57.0858 267.719 56.3875 267.2 56.6381 268.398L57.1574 267.576C57.242 267.258 57.3078 266.935 57.3544 266.61L59.1451 258.634C60.7029 253.019 67.5611 215.716 68.9757 214.465C65.7167 214.751 54.8296 212.945 53.791 214.053C56.0651 214.178 54.7401 212.98 55.1161 215.52L54.9012 229.003C54.7938 233.974 54.9012 238.946 54.7938 243.971" fill="#1F2150"/>
<path fill-rule="evenodd" clip-rule="evenodd" d="M989.602 259.171C997.589 259.171 1006.6 260.191 1014.56 260.227L1014.21 273.71L989.799 272.583L989.638 275.927C991.124 275.391 1010.64 276.178 1014.19 276.231C1014.19 276.231 1013.9 286.639 1013.78 287.444L988.707 286.746V290.001C988.797 290.001 1012.9 290.591 1013.53 290.627C1013.42 291.431 1013.01 302.483 1013.01 302.483C1013.01 302.483 994.706 301.517 988.206 301.624V304.718C994.706 304.933 1006.36 305.523 1012.81 305.559L1012.31 317.755C1009.39 317.755 989.71 316.878 987.149 316.753L986.934 319.096C989.943 319.579 1014.83 320.133 1014.83 320.133L1018.31 229.844L989.656 227.412L989.602 259.171ZM994.509 256.257L994.634 231.364L1013.87 232.759C1013.87 232.759 1013.08 256.596 1013.06 257.186L994.509 256.257Z" fill="#1F2150"/>
<path fill-rule="evenodd" clip-rule="evenodd" d="M1128.9 252.627L1116.61 251.035C1114.12 250.856 1112.26 250.57 1109.7 250.391C1107.7 250.248 1105.55 250.087 1103.56 249.998C1100.5 249.873 1094.07 249.998 1091.28 248.996C1090.86 253.914 1091.1 259.976 1090.97 265.091C1090.79 272.87 1090.97 307.293 1090.09 311.746C1089.47 308.384 1090.43 307.973 1090.86 305.219L1094.89 305.326L1095 304.486L1091.15 304.2V297.19C1094.73 296.546 1101.23 297.476 1105.08 297.529C1110.02 297.529 1113.73 297.708 1118.94 298.209C1119.46 300.158 1118.33 301.392 1120.73 302.268C1120.23 299.944 1120.36 278.306 1120.98 276.339C1121.34 275.194 1121.66 276.982 1121.63 272.351C1121.53 271.031 1121.7 269.705 1122.13 268.453H1122.47C1122.9 267.362 1121 266.664 1127.55 268.113C1131.96 269.043 1131.74 268.238 1132.35 270.026L1132.03 275.802L1132.26 275.266C1132.68 273.638 1132.57 264.536 1132.59 262.659L1134.38 263.231C1134.29 262.247 1134.38 263.231 1134.38 262.176L1132.59 261.729L1132.73 255.452L1134.02 256.131V254.826L1132.6 254.451L1132.87 247.834L1132.41 249.336C1132.37 249.86 1132.37 250.386 1132.41 250.91C1132.53 251.889 1132.41 252.882 1132.07 253.807L1130.69 252.877C1129.49 252.483 1129.34 252.43 1128.9 252.68M1092.85 250.159C1096.04 250.159 1100.48 250.606 1103.08 250.642C1104.54 250.692 1105.99 250.884 1107.41 251.214C1107.41 251.214 1118.03 251.017 1120.14 252.197L1120.84 252.752C1120.95 252.662 1121.11 252.966 1121.22 253.091C1113.78 253.181 1111.87 257.884 1108.9 258.116C1103.44 258.047 1097.99 257.695 1092.56 257.061C1092.8 254.751 1092.9 252.428 1092.85 250.105V250.159ZM1121.32 254.254C1123.09 253.725 1124.88 253.296 1126.69 252.966C1128.83 252.823 1130.28 253.825 1132.42 254.039L1132.57 255.112C1132.57 257.759 1132.57 253.485 1132.57 255.863L1132.12 261.228C1130.69 260.723 1129.22 260.311 1127.73 259.994L1121.34 259.315C1112.76 258.206 1114.07 259.815 1116.58 259.154C1119.28 259.547 1122.22 259.744 1124.87 260.066C1127.52 260.387 1129.86 261.192 1132.3 261.478L1132.53 262.659L1131.99 268.381L1128.41 267.666L1116.88 266.45L1116.51 266.861C1120.37 267.272 1121.63 267.254 1122.13 268.417H1120.09L1119.46 273.907L1092.6 272.44C1092.6 270.741 1092.73 267.38 1092.8 265.412L1105.33 265.931C1107.25 266.128 1116.47 266.772 1116.47 266.772L1116.85 266.36L1113.43 266.003L1092.49 264.661C1092.64 262.659 1092.62 259.475 1092.74 257.777C1099.19 257.616 1105.39 258.599 1111.55 258.653C1112.57 258.801 1113.62 258.758 1114.63 258.528C1116.46 256.548 1118.76 255.059 1121.32 254.2V254.254ZM1092.3 273.173L1119.85 274.533C1119.34 276.881 1119.12 279.283 1119.19 281.686L1091.9 280.344L1092.3 273.173ZM1092.12 281.167C1096.13 281.167 1117.19 281.703 1119.39 282.705L1119.16 289.518L1092.3 288.284C1092.06 283.706 1092.3 284.332 1092.13 281.167H1092.12ZM1112.33 297.065C1108.54 296.796 1093.69 296.921 1091.67 296.224C1091.67 294.847 1091.67 289.786 1091.67 289.947C1091.67 290.108 1091.67 289.625 1091.67 289.572C1091.67 289.518 1091.94 289.357 1092.05 289.214C1100.53 289.304 1110.92 289.375 1119.19 290.305L1118.87 297.19L1112.33 297.065Z" fill="#1F2150"/>
<path fill-rule="evenodd" clip-rule="evenodd" d="M887.338 53.1116C887.692 50.5981 887.901 48.0666 887.965 45.5294L868.465 44.4922C866.513 44.4922 868.465 45.583 866.065 46.2804C866.692 47.0136 866.37 46.2804 866.406 47.1746V53.5765C866.406 56.3483 865.851 59.8533 866.638 62.3926L871.312 62.6608C873.532 62.9112 873.389 63.5192 876.093 63.09C879.424 62.5893 882.808 63.698 886.282 63.7338C887.625 61.105 886.712 55.472 887.392 53.1652" fill="#1F2150"/>
<path fill-rule="evenodd" clip-rule="evenodd" d="M52.8601 247.387C53.057 249.533 53.0749 248.12 52.1796 248.746C52.5256 248.895 52.8367 249.114 53.0928 249.39C53.0928 256.257 54.1672 259.493 50.7829 260.012C50.9441 260.137 51.0157 260.674 52.6631 260.602C46.4495 262.48 13.4658 271.189 6.60759 272.333C6.48224 272.726 7.82523 272.44 5.47948 273.066V270.831C5.50659 270.438 5.50659 270.044 5.47948 269.651C5.06763 268.345 5.47948 268.989 4.67369 268.131L4.54834 278.359L5.8197 278.681H6.46433L7.05525 278.109C8.55939 276.983 13.8418 276.321 15.7757 276.214C18.4259 275.981 21.8997 274.3 25.4631 274.282C27.9879 274.282 26.7524 274.64 28.3461 273.799C30.8709 272.458 31.7662 272.816 34.7924 272.011C41.2566 270.223 47.4881 269.078 54.4895 267.362C54.3642 264.036 54.597 259.458 54.6328 255.935C54.6328 251.965 54.7402 247.995 54.6328 244.043C53.0033 245.438 53.9524 245.688 52.8422 247.387" fill="#1F2150"/>
<path fill-rule="evenodd" clip-rule="evenodd" d="M191.367 183.009C189.164 183.867 178.832 187.622 177.615 187.64V188.552C177.615 188.552 188.251 185.441 189.773 184.833C189.773 184.994 189.648 191.414 189.648 191.414L179.137 194.99L179.334 198.209C187.481 196.135 196.399 191.914 205.424 189.5C205.907 189.375 208.36 194.328 208.36 194.328C208.36 194.328 207.572 194.597 205.083 195.312L194.214 198.531L194.089 200.319C194.286 200.319 211.243 195.187 211.351 195.455L213.965 199.836C213.965 199.836 210.706 200.981 206.802 202.232C206.373 202.554 206.802 202.232 206.014 202.554L204.904 203.323L205.728 204.003C206.104 204.182 205.585 203.609 206.498 204.2C209.417 203.252 215.451 201.07 218.298 201.106L218.459 200.641C217.833 199.908 218.459 201.07 218.101 199.872C218.209 200.391 211.548 185.244 211.548 185.244C213.668 184.306 215.845 183.5 218.066 182.83C218.066 179.7 218.28 176.875 218.227 173.889C210.545 176.106 198.977 180.273 191.367 183.17M202.594 187.622C199.353 188.749 191.618 190.984 191.439 190.966L191.295 184.457L201.896 181.346C202.353 183.353 202.587 185.403 202.594 187.461V187.622Z" fill="#1F2150"/>
<path fill-rule="evenodd" clip-rule="evenodd" d="M865.868 114.895L886.318 115.468C886.318 115.468 886.515 109.62 886.676 100.124L873.264 99.3376C869.593 98.9978 870.363 99.6237 870.399 98.7832H865.797L865.868 114.895Z" fill="#1F2150"/>
<path fill-rule="evenodd" clip-rule="evenodd" d="M441.7 120.599C442.165 120.599 442.935 120.599 443.633 120.599C452.121 120.241 476.277 118.81 481.237 118.81C481.506 112.051 481.577 97.1726 481.559 92.3086C481.148 92.6305 455.881 110.191 451.476 113.374C449.686 114.697 443.472 119.347 441.682 120.527" fill="#1F2150"/>
<path fill-rule="evenodd" clip-rule="evenodd" d="M482.759 48.3902L482.723 64.5918L502.367 63.6082L502.886 47.4961L482.759 48.3902Z" fill="#1F2150"/>
<path fill-rule="evenodd" clip-rule="evenodd" d="M345.595 174.802C357.7 175.16 368.641 173.926 380.477 172.853C380.477 167.005 380.746 161.515 380.746 155.846C380.746 149.391 380.549 141.54 380.567 134.387C380.567 119.974 380.656 106.598 380.692 92.2384C381.211 80.0425 381.247 90.0746 380.065 84.8887L346.24 87.6247L345.595 174.802Z" fill="#1F2150"/>
<path fill-rule="evenodd" clip-rule="evenodd" d="M1207.97 263.553L1207.31 263.284L1207.11 265.716C1208.22 266.539 1208.04 266.575 1209.06 266.7C1210.01 267.594 1209.85 264.912 1209.85 268.488C1213.43 269.538 1217.08 270.374 1220.76 270.992C1223.94 270.992 1220.01 270.849 1222.98 270.366C1223.98 270.371 1224.97 270.559 1225.9 270.92C1227.81 271.51 1229.75 271.475 1228.8 274.98L1231.27 276.392C1232.54 277.698 1231.27 277.805 1233.58 278.288C1232.58 279.522 1234.99 279.45 1231.09 279.414C1231.67 279.503 1232.22 279.757 1232.67 280.148V283.277L1235.89 283.366C1235.71 282.133 1235.89 278.896 1235.37 278.431L1233.58 277.519C1235.55 274.443 1241.96 272.458 1247.1 273.442C1247.55 272.708 1247.21 273.692 1247.38 272.601C1247.45 272.253 1247.48 271.9 1247.49 271.546C1247.54 270.73 1247.54 269.912 1247.49 269.096L1213.76 260.691L1213.63 264.876L1207.97 263.553Z" fill="#1F2150"/>
<path fill-rule="evenodd" clip-rule="evenodd" d="M479.894 217.792L479.661 249.247L479.876 248.925C481.094 246.368 481.667 222.531 481.667 217.649V203.2L501.041 202.967C501.185 202.967 501.041 204.469 501.041 204.469C501.041 204.469 503.477 204.237 503.602 204.255C503.727 204.273 503.835 202.467 503.835 202.467L569.14 203.003V198.729C566.937 197.889 514.883 199.319 504.354 199.087L504.497 185.425L552.72 184.352L553.507 184.495C559.148 184.387 590.681 184.209 591.004 184.101C591.326 183.994 558.235 183.851 552.809 183.636C552.935 181.365 553.132 169.223 553.114 166.523C536.55 167.006 518.841 167.292 502.098 167.614V170.189C502.384 170.189 503.369 170.189 503.889 170.189V169.491L550.446 168.794V182.563C540.113 182.742 504.086 183.726 503.889 183.529V170.207C503.62 170.207 502.098 170.207 502.098 170.207C501.991 175.142 501.811 198.246 501.758 201.608L480.7 201.859H483.672L483.457 153.576C486.842 153.576 488.167 152.628 491.873 152.61C493.395 152.61 502.993 152.413 503.19 152.199C597.11 149.785 513.003 152.413 480.986 152.324L481.201 133.673L481.935 120.547L481.255 120.761C481.255 120.869 480.467 163.805 480.324 169.312C479.93 185.407 479.912 201.698 479.894 217.81" fill="#1F2150"/>
<path fill-rule="evenodd" clip-rule="evenodd" d="M331.414 245.92H332.363V243.023C332.363 241.503 332.363 213.178 332.56 195.134H334.977C334.977 195.134 335.228 241.199 334.404 245.634H336.392L336.929 227.394C359.151 226.554 380.477 227.841 402.717 228.592V225.016C385.599 224.873 353.439 224.748 336.696 224.819L337.036 208.117C338.558 207.831 385.384 208.278 393.424 208.349H402.377L401.965 207.849H400.515L394.23 207.723L381.068 207.527L360.154 207.115V198.729V188.822H358.936C358.828 193.364 358.434 205.363 358.596 206.972C358.596 206.972 339.758 206.972 336.768 206.972C336.589 201.608 336.624 198.496 336.768 193.006H330.25C330.25 193.006 330.25 204.057 329.999 206.865C326.065 206.901 322.132 206.728 318.217 206.346C318.127 206.186 318.413 188.464 318.413 188.464L340.206 188.714L366.886 188.947L402.359 189.626L402.52 187.123C400.819 186.479 319.971 185.96 314.922 186.139L314.026 245.867L331.414 245.92ZM324.412 207.598H330.375V225.874L317.16 225.624L317.643 207.473L324.412 207.598ZM330.285 227.859V244.436L316.623 243.989L317.303 227.197L330.285 227.859Z" fill="#1F2150"/>
<path fill-rule="evenodd" clip-rule="evenodd" d="M481.81 151.787L481.953 153.576C481.953 153.576 529.997 153.307 538.126 153.164C538.234 156.741 538.126 166.898 538.126 166.898H540.347C540.347 163.5 540.49 157.027 540.454 153.003L576.267 152.306L576.392 164.216H578.183V152.163L618.544 151.555L618.294 162.731H620.084C620.084 160.138 620.299 151.519 620.299 151.519C626.62 151.519 632.834 151.519 639.173 151.161C639.081 150.606 639.045 150.043 639.065 149.48C639.065 149.48 591.613 149.963 584.146 150.071C550.034 150.589 515.922 151.394 481.774 151.859" fill="#1F2150"/>
<path fill-rule="evenodd" clip-rule="evenodd" d="M1220.65 241.808L1227.13 244.436C1228.92 245.026 1232.36 245.813 1233.51 246.225L1246.78 246.421L1246.56 251.178C1244.95 251.178 1243.36 251.285 1241.83 251.285C1241.24 251.285 1240.04 251.285 1239.58 251.285C1237.11 251.554 1237.79 251.607 1237.55 252.072L1243.09 251.875C1243.64 254.451 1242.96 257.24 1242.96 259.994L1243.46 257.634L1247.44 256.918L1247.31 261.711C1247.53 261.934 1247.73 262.173 1247.9 262.426C1254.55 258.742 1250.25 305.13 1250.3 315.466L1256.12 314.947C1258.02 315.126 1256.23 268.703 1256.27 264.268C1256.14 260.566 1248.35 243.882 1248.66 241.021C1245.74 240.323 1239.18 240.824 1235.85 240.842H1233.17L1238.38 242.63C1239.97 243.296 1241.65 243.771 1243.36 244.043L1243.01 241.7C1244 241.164 1243.66 241.235 1245.06 241.235C1245.86 241.18 1246.67 241.353 1247.38 241.736L1247.15 244.794C1246.42 245.116 1248.21 245.849 1245.79 244.794C1246 245.216 1246.26 245.607 1246.58 245.956C1238.04 245.634 1236.43 247.494 1232.66 245.044C1232.56 244.504 1232.58 243.947 1232.73 243.417C1232.87 242.887 1233.14 242.397 1233.51 241.986C1232.9 241.414 1233.11 241.7 1232.74 240.735L1221.22 240.609C1218.18 240.359 1219.2 240.252 1218.66 240.699C1220.11 241.647 1219.63 240.144 1220.65 242.004M1243.62 251.714H1246.85C1246.77 253.384 1246.92 255.056 1247.29 256.686H1243.71L1243.62 251.714Z" fill="#1F2150"/>
<path fill-rule="evenodd" clip-rule="evenodd" d="M1063.65 312.264C1064.51 313.23 1066.85 312.837 1067.98 312.497C1067.71 310.852 1066.19 307.043 1064.95 306.345C1063.72 305.648 1064.02 306.166 1063.5 306.345C1062.98 306.524 1062.32 308.134 1061.25 303.878L1066.62 304.307C1067.91 306.238 1069.77 309.671 1069.68 311.692C1070.25 311.174 1071.97 312.998 1069.45 307.669C1068.79 306.545 1068.28 305.343 1067.93 304.092L1073.3 304.414L1076.48 311.174C1077.97 313.337 1076.74 313.534 1077.76 311.495L1074.62 304.629C1080.28 304.95 1079.99 304.396 1081.39 307.222C1082.63 309.433 1083.6 311.779 1084.29 314.214C1084.79 313.802 1084.99 314.035 1085.62 313.641C1086.53 312.944 1086.06 313.212 1086.03 312.407C1086.03 310.941 1085.81 313.409 1085.72 311.191C1083.09 310.458 1084.04 309.671 1081.96 305.594L1073.8 288.427C1070.22 280.434 1066.76 272.887 1063.05 265.466C1061.16 261.603 1059.85 257.472 1057.99 253.538C1055.25 247.798 1056.32 244.865 1056.47 238.195C1056.57 232.491 1056.47 226.786 1056.64 221.082C1056.64 216.754 1056.34 208.832 1057.04 204.987L1054.39 204.701C1054.39 213.875 1054.67 254.665 1053.76 270.866C1053.46 276.356 1053.87 281.596 1053.76 286.961C1051.22 309.671 1053.94 306.417 1054.69 303.574H1057.25C1058.24 303.574 1059.04 303.717 1060.01 303.752L1063.65 312.264ZM1054.93 258.313C1059.46 258.313 1058.69 259.279 1060.46 263.07C1061.68 265.211 1062.57 267.527 1063.09 269.937L1054.82 268.327L1054.93 258.313ZM1059.21 271.009C1066.08 270.849 1065.65 272.798 1068.16 280.487L1063.22 280.183L1059.21 271.009ZM1062.39 280.291C1054.89 279.683 1056.7 280.398 1055.61 278.037C1054.51 275.677 1054.67 273.549 1055.07 270.598L1058.02 270.741C1059.84 273.747 1061.3 276.951 1062.37 280.291H1062.39ZM1061 291.574L1055.34 290.841C1054.87 287.265 1055.8 284.707 1054.84 281.077C1057.92 281.507 1059.46 287.354 1060.98 291.574H1061ZM1061.89 291.574L1057.32 280.952L1063.05 281.614C1064.76 284.86 1066.23 288.218 1067.48 291.664L1061.89 291.574ZM1073.44 292.415L1068.41 291.592L1064.25 281.793L1069.36 282.043C1071.14 285.318 1072.51 288.802 1073.42 292.415H1073.44ZM1066.08 303.144C1060.35 302.626 1060.82 303.985 1058.79 299.067C1057.79 296.599 1056.55 294.561 1055.64 292.075L1061.51 292.808C1063.25 296.153 1064.77 299.605 1066.06 303.144H1066.08ZM1072.46 302.769C1070.94 303.055 1069.39 303.055 1067.87 302.769C1066.08 302.286 1063.05 294.668 1062.68 292.629L1068.05 293.148C1069.89 296.17 1071.36 299.399 1072.44 302.769H1072.46ZM1078.4 303.448L1073.62 302.948L1069.39 293.166L1074.48 293.452C1075.48 295.33 1078.22 300.838 1078.38 303.448H1078.4Z" fill="#1F2150"/>
<path fill-rule="evenodd" clip-rule="evenodd" d="M1170.76 263.141C1171.44 264.16 1172.25 264.071 1174.79 266.27C1176.04 267.361 1177.94 268.058 1178.95 269.435L1180.83 269.256L1191.03 266.538L1203.35 262.962C1203.87 262.157 1203.98 263.123 1203.35 262.068C1200.7 262.318 1179.79 257.043 1175.45 255.988C1175.58 259.332 1172.82 259.153 1170.19 258.098L1170.4 254.7L1155.51 251.32L1155.13 259.993C1158.85 260.709 1167.52 261.907 1170.55 263.069C1170.55 263.069 1170.74 263.069 1170.83 263.069M1180 266.789C1180.32 266.789 1171.94 262.962 1171.48 262.622C1171.48 262.622 1176.42 258.026 1176.85 258.151C1176.85 258.151 1196.44 262.694 1196.74 262.694L1180 266.789Z" fill="#1F2150"/>
<path fill-rule="evenodd" clip-rule="evenodd" d="M666.892 124.444C667.805 125.034 667.626 123.389 667.679 126.089L668.288 125.713C668.288 128.467 667.554 133.152 668.127 135.388H668.736L668.897 126.214C668.913 125.789 668.986 125.368 669.112 124.962C669.452 123.997 668.539 125.713 669.112 125.052L682.685 141.647C683.546 142.499 684.337 143.42 685.049 144.4L694.521 154.003C695.023 154.629 695.166 154.629 695.614 155.201C697.082 156.99 703.833 163.302 703.833 163.302H707.683C707.307 162.73 701.935 160.566 669.184 119.955C668.251 121.359 667.482 122.865 666.892 124.444Z" fill="#1F2150"/>
<path fill-rule="evenodd" clip-rule="evenodd" d="M1200 253.181C1200 252.001 1200 248.514 1200 247.298L1208.96 250.642C1210.8 250.596 1212.63 250.931 1214.33 251.625C1217.91 251.876 1229.16 256.382 1234.03 256.65C1233.17 256.346 1233.06 256.203 1232.34 255.917L1230.73 255.202L1221.96 252.824L1216.67 251.482C1214.02 250.624 1215.01 251.482 1214.63 250.213C1213.47 251.053 1211.37 250.463 1210.09 250.213C1210.51 243.399 1208.76 242.058 1213.56 240.073L1217.73 241.271L1217.57 243.06C1218.21 242.416 1217.57 243.06 1218.13 242.148C1218.25 241.975 1218.35 241.781 1218.41 241.575C1218.42 241.526 1218.43 241.478 1218.46 241.435C1218.48 241.392 1218.51 241.355 1218.55 241.325L1220.67 241.915C1219.65 240.127 1220.13 241.558 1218.68 240.61C1219.22 240.163 1218.2 240.27 1221.24 240.52L1232.75 240.646L1233.33 240.789V240.145C1231.32 240.145 1219 235.334 1216.26 234.405C1213.15 233.314 1201.94 229.04 1199.48 228.879L1199.22 252.788L1200 253.181ZM1213.54 240.002C1212.48 240.556 1210.17 239.43 1208.49 239.126C1208.49 240.914 1208.37 241.665 1208.49 243.221L1200.54 240.109C1200.54 238.316 1200.65 236.525 1200.86 234.744C1203.4 235.508 1205.88 236.427 1208.29 237.498C1212.27 238.965 1212.63 238.392 1213.54 240.002ZM1199.99 246.511C1199.99 246.511 1199.99 242.935 1199.99 241.146C1199.99 241.325 1209.69 244.526 1209.69 244.526V245.581L1206.11 244.472L1205.91 248.049L1199.99 246.511Z" fill="#1F2150"/>
<path fill-rule="evenodd" clip-rule="evenodd" d="M41.9372 276.427C41.9372 279.897 41.6865 283.884 41.8476 287.264C42.0088 290.644 42.7072 295.204 42.0088 298.405C40.7016 298.298 39.8063 298.924 39.287 297.886C39.0624 296.651 39.0624 295.385 39.287 294.149L39.5019 290.322C39.5019 290.161 39.5019 288.427 39.5019 288.373C39.1259 286.585 39.6989 287.586 38.3559 286.477C38.3559 289.249 38.4812 292.182 38.5887 294.918L38.1947 301.105L38.1052 301.391C38.1052 301.391 37.9082 301.839 37.8545 301.946C39.1438 301.839 38.5528 302.643 38.5708 306.13L43.0474 305.683C44.265 305.218 43.6562 305.039 43.7815 304.807C44.5726 304.722 45.3425 304.498 46.0557 304.145C46.3959 304.145 46.0557 302.965 46.575 304.664C46.7266 305.25 46.7266 305.866 46.575 306.452C47.1301 305.665 53.272 277.518 53.8629 274.264L41.9372 276.427ZM43.7278 304.807C42.0804 304.61 40.5942 305.647 40.4688 302.214C40.5584 303.573 40.7912 300.766 40.5763 303.287C40.5989 303.704 40.5287 304.12 40.3708 304.507C40.2129 304.893 39.9712 305.24 39.663 305.522C39.1259 304.879 39.3049 305.343 39.0542 304.145L39.3945 298.53C40.2915 298.544 41.1885 298.502 42.0804 298.405C43.2085 298.172 44.3725 298.172 45.5006 298.405V303.09C45.1999 303.28 44.889 303.453 44.5694 303.609C43.4771 304.557 44.086 303.555 43.7994 304.807H43.7278Z" fill="#1F2150"/>
<path fill-rule="evenodd" clip-rule="evenodd" d="M885.816 318.809C887.607 318.809 889.487 318.809 891.314 318.809C891.493 305.844 891.314 286.263 891.314 273.316L885.798 273.012C885.798 282.15 885.798 317.521 885.798 318.809" fill="#1F2150"/>
<path fill-rule="evenodd" clip-rule="evenodd" d="M955.186 259.296C954.524 276.052 953.754 308.616 953.646 312.658C953.772 312.658 970.192 313.14 976.835 313.248V329.896H979.503L980.936 330.022L980.631 312.461L976.943 310.798L956.941 310.53C956.941 308.741 957.031 295.759 957.031 295.759L977.426 296.206L976.943 310.798L980.631 312.461L982.315 226.088L956.44 223.531C955.974 235.459 955.652 247.404 955.186 259.296ZM958.767 241.718L978.465 242.773V259.743C973.952 259.368 962.116 258.796 958.356 258.831C958.445 252.412 958.803 241.736 958.803 241.736L958.767 241.718ZM958.105 261.085C966.145 261.281 978.644 261.979 978.644 261.979L978.411 276.285L957.783 275.391L958.105 261.085ZM957.442 278.842L978.393 279.021L977.784 293.702L957.192 293.201L957.442 278.842Z" fill="#1F2150"/>
<path fill-rule="evenodd" clip-rule="evenodd" d="M105.219 146.405C105.219 146.405 105.219 165.95 105.219 170.796L103.303 170.653V171.261L106.562 171.387L106.687 159.334C106.884 157.367 106.58 158.583 107.171 157.975C107.475 156.794 107.529 156.92 109.14 155.99C111.804 154.267 114.553 152.679 117.377 151.233L117.109 154.559C117.735 155.328 117.395 154.345 117.574 155.99V165.825C117.789 167.059 117.574 165.628 117.914 167.22L118.971 159.405L119.096 138.751V136.855C116.876 137.893 106.042 144.742 105.075 146.405" fill="#1F2150"/>
<path fill-rule="evenodd" clip-rule="evenodd" d="M412.351 139.287L412.655 172.316C412.977 172.155 415.932 172.316 415.95 171.923C415.95 167.077 415.663 146.136 415.95 142.023C424.617 136.372 437.438 128.057 448.092 120.457L441.789 120.6C440.929 121.333 418.761 135.335 412.44 139.287" fill="#1F2150"/>
<path fill-rule="evenodd" clip-rule="evenodd" d="M408.895 271.635C411.366 271.635 414.482 271.492 414.482 271.492C413.371 262.354 415.628 174.461 415.843 174.336C420.351 174.953 424.809 175.891 429.183 177.144V219.847V219.472C428.95 229.611 429.183 320.49 429.183 320.49C431.127 320.707 433.086 320.755 435.038 320.633C435.128 319.542 433.749 175.373 433.749 175.373C433.749 175.373 416.541 171.797 415.18 171.797C415.055 171.797 408.107 174.783 408.107 174.783C408.107 174.783 408.787 270.347 408.805 271.563" fill="#1F2150"/>
<path fill-rule="evenodd" clip-rule="evenodd" d="M665.137 163.035C660.015 162.123 638.277 163.411 636.074 162.677C636.433 162.785 636.075 163.285 637.041 162.087L639.835 158.654L640.139 158.207L644.938 151.537C643.382 151.767 641.926 152.444 640.748 153.486C641.59 153.718 641.411 152.252 643.882 150.213C645.816 150.857 646.138 150.875 646.604 151.894C646.836 152.413 646.407 152.359 646.908 153.253C647.857 154.934 644.92 157.313 641.858 161.318L641.482 159.637C640.361 160.552 639.346 161.59 638.456 162.731C639.584 162.731 639.727 162.731 640.694 162.731C641.661 162.731 642.485 162.892 643.38 162.946C645.054 162.975 646.726 162.849 648.376 162.57C651.044 162.427 655.969 163.142 657.992 162.57C657.67 161.032 658.368 161.64 656.828 161.479C655.037 161.265 655.915 162.034 654.608 161.658C653.301 161.283 653.462 160.943 652.155 161.426C652.065 159.441 651.313 157.366 653.945 154.863C652.369 154.29 654.25 155.363 651.958 154.863C647.821 154.076 648.537 153.414 649.522 151.644C649.791 151.179 649.845 151.161 650.095 150.678C650.597 149.695 650.239 151.215 650.525 149.641L656.756 149.838C658.672 149.963 664.886 150.535 665.71 149.158C664.027 148.3 658.332 148.801 656.094 148.783C654.429 148.783 652.781 148.783 651.098 148.783C649.292 148.734 647.494 148.525 645.726 148.157C644.902 148.264 645.404 148.443 645.189 147.781C643.989 148.407 644.168 148.479 643.219 149.569L637.614 155.471C635.002 157.911 632.561 160.528 630.309 163.303L663.418 163.428C664.832 163.428 664.385 163.607 665.208 163.035" fill="#1F2150"/>
<path fill-rule="evenodd" clip-rule="evenodd" d="M1035 205.648C1035.19 208.009 1035.14 210.387 1035.16 212.801C1035.16 218.56 1034.26 231.381 1034.21 231.56C1031.49 249.89 1034.66 242.916 1032.97 258.67C1030.97 258.67 1030 258.277 1028.62 259.242C1035.17 258.813 1034.51 262.139 1034.66 246.403L1039.7 246.725C1038.34 245.598 1037.79 246.099 1035.53 245.276L1035.84 233.527L1043.11 234.457L1042.75 246.689L1040.46 246.51C1041.35 247.458 1040.46 247.1 1042.12 247.422C1042.72 247.497 1043.32 247.497 1043.91 247.422V234.904L1050.74 236.567V247.708C1050.18 248.084 1051.4 248.227 1048.82 248.084C1049.64 249.174 1048.82 248.549 1050.31 248.996C1051.03 249.237 1051.8 249.292 1052.54 249.157C1049.21 237.748 1052.83 208.617 1052.54 208.313C1052.54 208.313 1035.98 205.416 1034.89 205.684" fill="#1F2150"/>
<path fill-rule="evenodd" clip-rule="evenodd" d="M798.271 238.016H811.504V235.959C811.504 235.959 803.214 235.959 802.139 235.959C802.139 235.959 802.139 225.641 802.515 220.294L815.39 220.652C815.229 226.911 814.889 234.565 814.835 236.156L811.504 236.049V238.105C811.504 238.105 834.246 238.481 845.276 238.731L845.383 226.41L821.532 226.017C821.532 227.215 821.031 235.673 821.138 235.995H817.557C817.557 235.995 817.7 225.48 817.825 220.795H821.747V223.621C823.126 223.621 825.704 223.621 825.704 223.621V219.847L857.614 220.08V235.584C857.614 235.584 847.335 235.262 845.366 235.584V238.731C849.914 239.16 855.572 239.107 860.138 239.16C860.138 239.16 860.55 218.005 860.694 217.701C860.837 217.397 803.518 216.664 798.325 216.539C798.021 217.505 798.504 231.793 798.325 237.998" fill="#1F2150"/>
<path fill-rule="evenodd" clip-rule="evenodd" d="M576.249 203.181C577.413 202.931 585.507 200.088 585.775 200.034L566.794 184.601L553.508 184.494C558.79 189.644 570.25 197.942 576.249 203.181Z" fill="#1F2150"/>
<path fill-rule="evenodd" clip-rule="evenodd" d="M430.813 175.373C430.813 176.339 430.812 178.163 430.92 179.057C433.194 178.61 480.252 172.548 480.252 172.333C480.252 172.119 480.36 168.238 480.36 168.238C468.076 170.027 443.472 173.317 430.813 175.391" fill="#1F2150"/>
<path fill-rule="evenodd" clip-rule="evenodd" d="M899.676 299.388L913.822 299.764C913.822 301.82 913.911 314.07 913.965 316.376H881.859V318.308L915.881 318.755L915.756 297.868C915.756 297.868 916.902 297.868 901.556 297.528V278.662L916.024 279.556L916.275 237.837L913.392 237.676C913.392 243.899 913.5 250.193 913.285 256.416L901.502 255.522C901.502 251.177 901.502 236.978 901.502 236.656H899.712L899.676 299.388ZM901.825 258.097C902.398 258.097 906.588 258.419 906.731 258.491C906.731 261.441 907.053 276.588 907.035 276.946L901.807 276.481L901.825 258.097ZM908.719 277.035C908.719 274.8 908.719 260.208 908.719 258.688L914.091 259.313C914.091 259.313 913.911 274.406 913.965 277.357L908.719 277.035Z" fill="#1F2150"/>
<path fill-rule="evenodd" clip-rule="evenodd" d="M667.411 163.392L696.742 163.571V162.802C694.378 162.802 692.104 162.248 690.206 163.446L688.308 160.406C685.479 160.942 686.517 160.227 684.888 161.425C684.333 160.781 684.888 161.675 684.494 160.71C684.315 160.299 684.35 160.138 684.136 159.637C683.167 160.138 682.093 160.401 681.002 160.406C680.193 159.194 679.82 157.744 679.945 156.293C682.631 154.218 683.849 156.096 686.822 155.309L688.147 154.666C686.983 153.664 688.147 154.218 683.867 153.628C683.025 153.503 683.061 153.628 681.861 153.45C677.396 152.897 672.89 152.729 668.396 152.949L667.912 160.263C667.68 162.176 667.304 161.479 667.375 163.392" fill="#1F2150"/>
<path fill-rule="evenodd" clip-rule="evenodd" d="M86.5779 170.491L90.9292 170.294L90.0697 167.29C91.6898 166.652 93.219 165.805 94.6179 164.769C96.0029 163.857 97.451 163.044 98.9513 162.337L98.7543 165.645C99.7034 167.594 97.7336 168.202 100.276 170.67L100.491 151.554C100.33 148.227 101.1 149.765 99.4885 149.604C96.892 151.697 91.5917 154.54 88.6013 156.883V166.289H85.9512L86.5779 170.491Z" fill="#1F2150"/>
<path fill-rule="evenodd" clip-rule="evenodd" d="M379.94 172.942C381.731 172.942 405.242 172.102 408.304 171.977C410.614 171.977 412.727 171.744 414.786 171.816L415.037 166.97L415.431 139.27C414.893 139.27 412.369 139.27 412.369 139.27L384.99 139.699C385.222 140.521 385.115 160.317 385.115 160.317C385.115 160.317 410.578 160.317 412.494 160.317L412.046 164.681C408.823 164.913 394.498 165.128 394.498 165.128C394.498 165.128 383.038 171.065 379.886 172.996" fill="#1F2150"/>
<path fill-rule="evenodd" clip-rule="evenodd" d="M854.587 204.486C854.587 203.913 854.587 201.392 854.587 201.392C854.587 201.392 835.714 200.408 835.714 200.498C835.714 200.319 835.714 181.095 835.714 181.095C835.714 181.095 853.62 181.775 854.82 181.31L854.569 204.557H858.401L858.724 178.914L832.151 178.02L832.061 203.86L854.587 204.557" fill="#1F2150"/>
<path fill-rule="evenodd" clip-rule="evenodd" d="M1047.4 199.39L1047.28 205.685C1049.37 205.685 1069.41 207.992 1069.48 208.01L1069.73 189.77L1069.61 198.89H1068.52L1047.4 199.426" fill="#1F2150"/>
<path fill-rule="evenodd" clip-rule="evenodd" d="M479.321 319.56L502.295 319.256L502.205 232.83C500.182 236.746 481.291 242.075 479.661 249.246C479.948 263.552 479.894 309.761 479.321 319.56Z" fill="#1F2150"/>
<path fill-rule="evenodd" clip-rule="evenodd" d="M1154.54 267.933V269.597C1154.54 269.597 1166.09 271.778 1169.76 271.903C1169.76 272.923 1169.76 273.942 1169.76 274.997C1169.76 277.59 1169.67 276.785 1169.24 277.375C1169.35 277.375 1169.51 277.375 1169.58 277.375C1169.78 277.787 1169.96 277.501 1170.28 277.554C1172.18 277.948 1178.34 279.074 1179.55 278.663L1179.72 269.99L1180.61 269.382L1180.9 269.167L1179.02 269.346C1178.01 267.933 1176.12 267.272 1174.86 266.181C1172.32 263.981 1171.51 264.071 1170.83 263.052L1169.71 262.605C1169.6 263.034 1170.08 264.536 1169.97 266.431C1169.89 267.843 1169.89 269.258 1169.97 270.67C1169.97 270.562 1164.6 269.847 1164.6 269.847C1164.6 269.489 1164.33 261.943 1164.28 261.764L1162.99 261.514C1162.99 264.053 1163.28 269.614 1163.28 269.614L1154.5 267.826" fill="#1F2150"/>
<path fill-rule="evenodd" clip-rule="evenodd" d="M237.763 290.125L244.477 290.268L244.567 260.941C245.068 256.452 244.925 256.649 249.33 256.398C252.07 260.672 250.978 283.222 250.601 289.785L253.843 291.466L254.577 257.489C267.416 255.701 268.204 256.398 267.935 267.468C267.72 275.711 267.935 283.973 267.487 292.181L278.876 292.467C278.876 256.416 280.255 247.761 280.129 291.448L283.908 293.075C284.498 283.025 282.224 268.04 285.268 259.742C288.85 258.455 295.833 259.546 300.955 260.011V293.737L305.485 293.987C306.076 282.328 303.264 263.176 308.35 254.932L237.691 249.746L237.763 290.125Z" fill="#1F2150"/>
<path fill-rule="evenodd" clip-rule="evenodd" d="M644.974 147.746H665.656C664.134 144.009 665.441 144.17 665.244 140.468L664.653 140.969C663.113 142.435 664.976 141.362 663.883 143.204C663.095 144.527 663.883 143.848 662.612 144.348C662.612 144.348 662.522 144.116 662.504 144.17C662.487 144.223 662.504 144.026 662.415 143.991L661.358 140.915C658.35 140.915 657.777 139.27 654.912 143.436C653.873 144.921 653.748 144.652 652.513 144.688C652.427 144.121 652.472 143.541 652.642 142.993C652.813 142.445 653.105 141.942 653.497 141.523C654.876 139.735 666.838 127.789 666.892 127.592L665.101 125.947C661.52 129.524 645.511 146.494 644.902 147.782" fill="#1F2150"/>
<path fill-rule="evenodd" clip-rule="evenodd" d="M1233.76 250.909C1233.08 252.179 1234.28 251.338 1232.58 251.606C1231.25 251.803 1232.47 251.606 1229.59 250.748L1225.48 249.568C1225.7 250.533 1225.48 251.571 1226.22 251.803C1226.95 252.036 1227.44 250.927 1227.58 250.337C1227.58 250.14 1227.72 250.104 1227.83 250.015L1228.37 251.803C1229.59 251.642 1228.82 251.624 1229.28 251.463C1230.05 251.195 1229.28 251.123 1230.03 251.249C1230.62 252.411 1230.32 253.502 1230.64 255.165L1232.25 255.88C1232.97 256.166 1233.08 256.309 1233.94 256.613C1229.05 256.345 1217.82 251.839 1214.24 251.588C1214.74 252.679 1216.48 252.679 1219.61 253.734L1237.52 258.741V258.276V252.143C1237.79 251.678 1237.07 251.624 1239.54 251.356C1240.08 251.356 1241.21 251.356 1241.8 251.356C1243.32 251.356 1244.91 251.249 1246.52 251.231L1246.74 246.474L1233.47 246.277C1233.42 246.765 1233.42 247.256 1233.47 247.744V248.817C1233.47 250.337 1233.35 249.729 1233.86 250.998" fill="#1F2150"/>
<path fill-rule="evenodd" clip-rule="evenodd" d="M1233.31 240.037V240.681H1233.17L1234.26 238.446C1242.3 233.421 1250.55 244.937 1243.64 227.806C1241.31 227.555 1236.71 227.949 1234.33 227.18V239.858C1233.81 240.162 1235.12 240.484 1233.38 240.019" fill="#1F2150"/>
<path fill-rule="evenodd" clip-rule="evenodd" d="M1092.17 290.322C1095.84 290.608 1114.39 289.875 1118.62 291.091L1118.14 297.171H1118.89L1119.21 290.286C1110.94 289.356 1100.55 289.285 1092.06 289.195C1091.96 289.338 1091.72 289.481 1091.69 289.553C1091.65 289.624 1091.69 290 1091.69 289.929C1091.69 289.857 1091.99 290.161 1092.13 290.304" fill="#1F2150"/>
<path fill-rule="evenodd" clip-rule="evenodd" d="M1154.41 281.489L1154.32 282.133H1154.77L1170.1 284.1C1170.03 286.009 1170.16 287.92 1170.48 289.805L1154.81 288.016H1154.29V289.036C1162.81 290.037 1171.25 290.824 1179.57 291.396L1179.77 285.191C1176.51 284.386 1171.32 284.35 1168.36 283.51C1168.33 282.843 1168.33 282.174 1168.36 281.507C1168.36 280.72 1168.51 279.933 1168.54 279.147L1166.38 278.843L1166.05 283.099C1163.67 283.099 1163.92 283.403 1164.26 280.702C1164.46 279.111 1165.14 278.342 1163.81 277.662C1163.75 277.737 1163.71 277.822 1163.67 277.913C1163.67 277.913 1163.67 278.092 1163.56 278.163L1163.71 282.884L1159.09 282.079V277.68L1156.74 277.305V281.704L1154.41 281.489Z" fill="#1F2150"/>
<path fill-rule="evenodd" clip-rule="evenodd" d="M73.8283 166.718C74.0969 169.508 73.6134 171.94 73.8283 174.855C78.3228 173.424 78.9675 170.044 84.5722 170.044L84.7871 159.869C80.7833 161.558 77.0725 163.87 73.7925 166.718" fill="#1F2150"/>
<path fill-rule="evenodd" clip-rule="evenodd" d="M288.438 178.234L288.707 181.489C312.612 179.844 394.498 175.981 415.843 174.336L415.27 171.868C408.34 170.688 296.568 177.698 288.438 178.234Z" fill="#1F2150"/>
<path fill-rule="evenodd" clip-rule="evenodd" d="M918.048 317.879L938.157 318.899L938.479 295.562C933.394 295.419 918.961 294.686 918.37 294.668L918.048 317.879ZM920.394 296.85L936.062 297.636L935.883 316.52C935.22 316.52 919.964 315.894 919.964 315.894C919.964 315.894 920.394 300.158 920.394 296.85Z" fill="#1F2150"/>
<path fill-rule="evenodd" clip-rule="evenodd" d="M918.388 263.625L938.497 264.626L938.802 241.379C933.734 241.236 919.301 240.485 918.71 240.467L918.388 263.625ZM920.698 242.631L936.384 243.435L936.223 262.194C935.543 262.194 920.304 261.55 920.304 261.55C920.304 261.55 920.716 245.885 920.698 242.631Z" fill="#1F2150"/>
<path fill-rule="evenodd" clip-rule="evenodd" d="M1216.98 244.418L1216.03 246.081C1216.03 246.081 1216.03 246.206 1216.03 246.242C1216.13 246.97 1216.05 247.712 1215.8 248.403C1215.55 249.095 1215.14 249.715 1214.6 250.212C1214.97 251.553 1213.99 250.623 1216.64 251.482L1221.92 252.805L1230.7 255.201C1230.37 253.538 1230.7 252.447 1230.09 251.285C1229.39 251.16 1230.09 251.285 1229.33 251.499C1228.87 251.66 1229.64 251.678 1228.42 251.839L1227.88 250.051C1227.78 250.14 1227.67 250.176 1227.63 250.373C1227.49 250.963 1226.81 252.036 1226.27 251.839C1225.74 251.642 1225.75 250.57 1225.54 249.604L1229.64 250.784C1232.52 251.625 1231.3 251.839 1232.63 251.642C1234.42 251.374 1233.13 252.215 1233.81 250.945L1229.67 249.157C1228.2 248.873 1226.76 248.441 1225.38 247.869C1222.83 247.208 1224.52 247.261 1222.67 247.118C1222.67 246.743 1222.67 245.473 1222.67 245.187L1221.92 243.273L1221.1 245.169C1221.1 245.276 1221.1 246.51 1221.1 246.725L1216.89 245.527L1216.98 244.418Z" fill="#1F2150"/>
<path fill-rule="evenodd" clip-rule="evenodd" d="M227.896 305.79C228.182 304.449 227.753 304.735 228.415 303.251L228.899 302.428C227.287 297.904 229.991 294.917 226.732 294.47H220.805L218.71 293.004V305.432L227.896 305.79Z" fill="#1F2150"/>
<path fill-rule="evenodd" clip-rule="evenodd" d="M1112.41 243.201L1113.78 243.344L1113.96 240.877C1114.11 238.516 1114.27 234.707 1114.27 233.116C1110.72 233.107 1107.18 232.868 1103.67 232.4C1103.89 235.001 1103.89 237.615 1103.67 240.215C1106.73 240.322 1110.26 240.895 1112.62 240.966L1112.41 243.201Z" fill="#1F2150"/>
<path fill-rule="evenodd" clip-rule="evenodd" d="M225.335 203.074H227.61L227.86 185.96L239.016 186.604C240.037 190.27 239.482 199.372 239.32 203.592L240.878 203.306L241.022 187.212C244.388 186.836 259.394 187.57 261.847 188.553L262.563 191.808C262.76 195.974 262.205 200.624 262.688 205.47L265.016 205.649L265.285 185.263C258.848 184.203 252.343 183.605 245.82 183.474C239.804 183.224 233.286 182.58 226.875 182.777C224.243 187.051 225.694 197.083 225.389 203.056" fill="#1F2150"/>
<path fill-rule="evenodd" clip-rule="evenodd" d="M56.3876 210.458C57.1934 207.079 60.9001 189.232 61.2761 184.332C58.6796 184.654 17.9066 219.328 17.9066 219.722C17.7812 221.027 56.2085 211.263 56.3697 210.458" fill="#1F2150"/>
<path fill-rule="evenodd" clip-rule="evenodd" d="M885.781 256.399L891.314 256.936L891.331 243.488L885.798 242.469L885.781 256.399Z" fill="#1F2150"/>
<path fill-rule="evenodd" clip-rule="evenodd" d="M885.763 241.414L891.367 242.38V229.057C885.995 227.931 887.338 228.199 885.798 227.877L885.763 241.414Z" fill="#1F2150"/>
<path fill-rule="evenodd" clip-rule="evenodd" d="M61.1328 174.766L61.3119 182.527C63.1025 182.133 68.7252 178.235 70.6054 177.162V169.15C67.615 169.562 63.9262 173.371 61.0791 174.748" fill="#1F2150"/>
<path fill-rule="evenodd" clip-rule="evenodd" d="M885.763 257.65L885.816 271.778L891.296 272.117L891.35 258.294L885.763 257.65Z" fill="#1F2150"/>
<path fill-rule="evenodd" clip-rule="evenodd" d="M892.513 209.994C892.513 209.994 929.275 214.822 929.741 214.804C928.273 210.959 898.655 165.019 892.603 156.311C892.513 160.352 892.513 209.958 892.513 209.958" fill="#1F2150"/>
<path fill-rule="evenodd" clip-rule="evenodd" d="M414.303 268.811L414.482 271.493H422.593C422.593 271.69 421.322 314.089 421.322 314.089C422.824 313.966 424.333 313.966 425.835 314.089L426.479 268.864H414.303" fill="#1F2150"/>
<path fill-rule="evenodd" clip-rule="evenodd" d="M893.749 228.896L908.074 230.416C908.074 230.416 908.074 219.686 908.074 217.451L893.749 214.697V228.896Z" fill="#1F2150"/>
<path fill-rule="evenodd" clip-rule="evenodd" d="M1243.78 309.259V302.195C1240.95 301.464 1238.04 301.086 1235.12 301.069L1207.69 299.549L1208.22 307.077C1217.95 307.828 1233.88 308.866 1243.75 309.259" fill="#1F2150"/>
<path fill-rule="evenodd" clip-rule="evenodd" d="M192.638 303.842H203.937L203.829 287.229L192.602 287.211L192.638 303.842Z" fill="#1F2150"/>
<path fill-rule="evenodd" clip-rule="evenodd" d="M1114.25 224.587H1114.75L1121.25 225.356L1122.29 225.195C1122.72 221.744 1123.01 219.83 1123.01 219.83C1123.01 219.83 1124.9 220.116 1129.13 220.581L1132.71 221.511L1132.59 220.009L1124.62 218.507C1122.09 217.953 1117.54 217.309 1114.45 216.951C1114.45 216.951 1114.27 224.104 1114.25 224.659" fill="#1F2150"/>
<path fill-rule="evenodd" clip-rule="evenodd" d="M211.565 266.306C211.012 268.914 210.831 271.587 211.028 274.246H220.25V265.108C217.277 264.983 214.878 266.306 211.601 266.306" fill="#1F2150"/>
<path fill-rule="evenodd" clip-rule="evenodd" d="M927.861 233.188C929.974 233.707 934.092 234.44 938.39 235.191C938.39 232.276 938.515 225.946 938.515 223.335C938.515 223.335 930.171 221.708 927.771 221.439C927.664 223.442 927.771 230.828 927.771 233.188" fill="#1F2150"/>
<path fill-rule="evenodd" clip-rule="evenodd" d="M910.868 231.149C913.84 231.667 918.729 232.061 924.781 232.812C924.674 229.897 924.638 223.549 924.656 220.956L910.886 218.398C910.886 219.704 910.886 228.788 910.886 231.149" fill="#1F2150"/>
<path fill-rule="evenodd" clip-rule="evenodd" d="M1123.74 313.677C1125.53 312.73 1129.34 313.856 1131.67 313.445L1131.94 306.292C1127.23 305.934 1127.27 304.772 1129.17 307.186H1122.63C1122.5 308.162 1122.6 309.156 1122.93 310.083L1123.74 313.677Z" fill="#1F2150"/>
<path fill-rule="evenodd" clip-rule="evenodd" d="M201.305 319.454H209.506C209.488 316.537 209.097 313.634 208.342 310.816L201.394 311.21L201.305 319.454Z" fill="#1F2150"/>
<path fill-rule="evenodd" clip-rule="evenodd" d="M192.047 319.132L197.419 318.81C197.151 317.844 196.954 317.63 197.007 317.022C197.742 318.327 198.01 317.88 199.944 317.898C200.481 317.111 200.213 317.898 200.642 316.253V311.156C197.797 311.024 194.963 310.719 192.155 310.244L192.047 319.132Z" fill="#1F2150"/>
<path fill-rule="evenodd" clip-rule="evenodd" d="M1214.76 296.296C1217.12 296.511 1223.71 297.601 1225.5 297.244V292.72C1222.37 291.832 1219.11 291.499 1215.87 291.736L1214.62 292.004L1214.76 296.296Z" fill="#1F2150"/>
<path fill-rule="evenodd" clip-rule="evenodd" d="M1114.63 208.475C1116.08 208.117 1120.87 209.351 1122.92 209.583V202.43C1120.18 202.784 1117.39 202.577 1114.73 201.822L1114.63 208.475Z" fill="#1F2150"/>
<path fill-rule="evenodd" clip-rule="evenodd" d="M1246.94 288.641C1246.83 283.276 1247.21 282.883 1247.21 279.324H1237.23C1237.91 281.112 1236.86 286.352 1237.23 287.944C1242.46 288.265 1243.19 288.391 1246.9 288.677" fill="#1F2150"/>
<path fill-rule="evenodd" clip-rule="evenodd" d="M30.5306 313.803C32.8763 313.105 32.6614 312.015 33.5926 310.226L33.0196 298.013C29.2771 302.322 18.4437 292.988 13.985 290.466C9.95601 288.195 10.7081 287.158 7.55654 290.001L6.96563 286.121L7.12678 284.851L2.2025 283.85C2.09506 295.688 2.4711 303.52 0 309.243C5.15707 309.529 29.8501 314.071 30.5306 313.874" fill="#1F2150"/>
<path fill-rule="evenodd" clip-rule="evenodd" d="M2.48877 271.707C8.54116 271.188 26.6804 267.558 31.4794 264.339C31.1213 252.036 29.0978 253.735 25.2837 242.093L21.9531 235.423C21.5771 243.345 23.3677 253.502 20.1625 258.313C19.2492 254.486 18.9448 249.067 18.1032 244.203L14.1817 232.258L2.72155 235.709L2.48877 271.707Z" fill="#1F2150"/>
<path fill-rule="evenodd" clip-rule="evenodd" d="M1214.06 289.142L1223.78 290.036V285.44C1221.03 284.659 1218.17 284.339 1215.31 284.492L1214.17 284.779L1214.06 289.142Z" fill="#1F2150"/>
<path fill-rule="evenodd" clip-rule="evenodd" d="M1114 231.937C1116.17 231.722 1119.68 232.76 1122.18 232.706C1122 231.436 1121.97 227.234 1121.97 227.234C1126.28 226.787 1124.92 228.754 1129.67 228.003C1124.4 226.542 1119 225.602 1113.55 225.195L1114.11 226.572C1114.45 228.235 1113.59 229.916 1113.93 231.937" fill="#1F2150"/>
<path fill-rule="evenodd" clip-rule="evenodd" d="M373.816 271.224L398.258 271.046L398.724 269.526C393.692 268.614 380.119 269.436 374.192 269.526L373.816 271.224Z" fill="#1F2150"/>
<path fill-rule="evenodd" clip-rule="evenodd" d="M192.477 285.495C192.567 285.495 202.809 285.602 204.259 285.709L203.561 272.959C195.861 272.959 191.653 272.959 191.653 272.959L192.477 285.477" fill="#1F2150"/>
<path fill-rule="evenodd" clip-rule="evenodd" d="M374.711 174.891L398.151 173.854L398.079 171.977L374.801 172.96L374.711 174.891Z" fill="#1F2150"/>
<path fill-rule="evenodd" clip-rule="evenodd" d="M190.131 296.367L187.607 296.492C186.478 298.781 187.392 304.486 186.854 307.508L191.385 307.186C191.385 305.684 191.063 296.85 190.131 296.367Z" fill="#1F2150"/>
<path fill-rule="evenodd" clip-rule="evenodd" d="M1236.98 278.717L1247.29 278.557C1247.17 276.589 1247.58 275.534 1246.85 274.086C1242.07 274.086 1238.32 274.855 1236.1 277.662C1236.59 278.431 1236.3 278.413 1237.02 278.789" fill="#1F2150"/>
<path fill-rule="evenodd" clip-rule="evenodd" d="M111.987 158.35C111.217 159.173 111.665 158.618 111.217 159.977L110.107 164.627L109.713 158.708C108.71 158.708 107.6 159.173 107.367 158.296C107.367 158.171 107.224 158.153 107.152 158.082L108.621 164.054C108.754 164.382 108.941 164.684 109.176 164.949C109.319 163.482 109.731 160.496 109.176 159.584C109.713 162.928 109.283 167.667 110.053 170.868C112.727 170.77 115.274 169.702 117.216 167.863H115.121L115.282 155.578C113.348 155.685 114.745 155.328 114.136 156.311C115.371 158.1 114.816 166.129 114.763 168.722L111.593 170.26L111.987 158.35Z" fill="#1F2150"/>
<path fill-rule="evenodd" clip-rule="evenodd" d="M1207.69 284.529C1207.85 280.022 1207.79 280.737 1207.83 279.79C1209.04 279.855 1210.23 280.029 1211.41 280.308L1221.9 282.097V281.363L1220.11 281.024L1215.46 280.201C1214.11 279.969 1214.45 280.201 1213.67 279.629L1208.12 278.788C1207.99 277.143 1208.12 275.695 1208.12 274.264L1213.49 275.319L1215.71 275.695L1221.08 276.857L1222.05 277L1222.21 276.303L1208.12 273.37C1207.71 273.155 1207.29 272.987 1206.84 272.869C1206.84 274.21 1206.84 276.177 1206.84 277.179C1206.84 279.432 1206.7 281.953 1206.61 284.332L1207.69 284.529Z" fill="#1F2150"/>
<path fill-rule="evenodd" clip-rule="evenodd" d="M107.206 157.974V158.081C107.206 158.081 107.385 158.081 107.421 158.296C107.654 159.172 108.764 158.672 109.767 158.707L110.161 164.626L111.271 159.977C111.718 158.618 111.271 159.172 112.041 158.35C112.274 157.026 111.45 158.189 112.9 156.991C113.292 156.675 113.726 156.416 114.19 156.222C114.798 155.238 113.402 155.596 115.336 155.488C115.895 155.112 116.496 154.8 117.126 154.559L117.395 151.232C114.595 152.681 111.87 154.268 109.229 155.989C107.618 156.919 107.564 156.794 107.26 157.974" fill="#1F2150"/>
<path fill-rule="evenodd" clip-rule="evenodd" d="M1128.9 252.626C1129.33 252.375 1129.47 252.429 1130.69 252.822L1132.07 253.752C1132.42 252.83 1132.54 251.834 1132.41 250.855C1132.37 250.331 1132.37 249.806 1132.41 249.282L1132.87 247.78V247.386L1132.46 247.118C1131.57 247.815 1130.51 247.118 1127.61 246.653C1125.92 246.385 1124.33 246.17 1122.61 245.812C1122.81 247.601 1123.1 248.727 1127.11 249.157L1128.9 249.282V252.626Z" fill="#1F2150"/>
<path fill-rule="evenodd" clip-rule="evenodd" d="M709.33 162.73V163.499C719.877 163.499 712.696 163.016 711.819 161.872C711.264 161.139 711.013 160.531 710.387 159.815L703.242 152.001C703.171 151.922 703.105 151.838 703.045 151.75C702.933 151.59 702.831 151.423 702.741 151.25C701.971 149.98 701.881 149.104 699.983 149.336C702.472 153.467 702.83 153.378 703.797 153.288C705.785 153.109 703.26 152.716 704.549 153.288C705.48 155.631 704.549 154.272 704.871 156.096C706.089 158.476 707.586 160.703 709.33 162.73Z" fill="#1F2150"/>
<path fill-rule="evenodd" clip-rule="evenodd" d="M187.23 284.546V295.74L190.4 295.365L189.881 284.492L187.23 284.546Z" fill="#1F2150"/>
<path fill-rule="evenodd" clip-rule="evenodd" d="M1122.56 283.313C1123.54 282.294 1124.15 282.633 1127.54 283.17C1129.1 283.533 1130.7 283.784 1132.3 283.921V277.662C1131.07 277.134 1129.74 276.872 1128.4 276.893L1128.5 282.258L1122.83 281.882L1122.33 276.518L1122.56 283.313Z" fill="#1F2150"/>
<path fill-rule="evenodd" clip-rule="evenodd" d="M90.9293 170.296H90.5533C92.3439 169.92 91.5561 171.136 91.7888 169.187C93.3646 170.367 90.7503 170.635 94.0093 170.296L94.4569 167.685C96.8385 166.791 95.2806 166.612 97.3757 166.04C98.0919 165.843 98.1815 165.789 98.7545 165.646L98.9514 162.338C97.4511 163.045 96.003 163.858 94.6181 164.77C93.2191 165.806 91.69 166.653 90.0698 167.291L90.9293 170.296Z" fill="#1F2150"/>
<path fill-rule="evenodd" clip-rule="evenodd" d="M1211.71 291.682L1211.82 287.319L1212.95 287.033L1212.65 286.89L1212.34 286.747L1212.02 286.622C1211.81 286.543 1211.59 286.483 1211.37 286.443C1210.87 286.335 1210.19 286.282 1209.69 286.228C1208.53 286.139 1207.49 286.049 1206.41 285.906V291.021L1211.71 291.682Z" fill="#1F2150"/>
<path fill-rule="evenodd" clip-rule="evenodd" d="M1164.57 302.215L1167.43 302.394L1169.58 302.519C1169.58 300.6 1169.4 298.685 1169.06 296.797C1167.87 296.607 1166.67 296.607 1165.48 296.797L1164.6 297.101L1164.57 302.215Z" fill="#1F2150"/>
<path fill-rule="evenodd" clip-rule="evenodd" d="M1132.35 276.266L1131.99 275.747L1132.32 269.971L1128.54 269.131V275.122C1126.43 274.721 1124.29 274.47 1122.15 274.37C1122.15 274.37 1122.15 274.639 1122.15 274.746C1124.85 275.014 1130.62 275.819 1132.41 276.266" fill="#1F2150"/>
<path fill-rule="evenodd" clip-rule="evenodd" d="M1194.94 299.746L1194.7 289.553L1197.68 288.91C1197.47 288.767 1197.25 288.647 1197.01 288.552C1195.04 287.747 1193.54 287.121 1184.64 286.764L1184.75 298.673L1194.94 299.746Z" fill="#1F2150"/>
<path fill-rule="evenodd" clip-rule="evenodd" d="M1127.63 259.976C1129.11 260.293 1130.58 260.706 1132.01 261.21L1132.46 255.846C1132.59 253.467 1132.57 257.741 1132.46 255.094L1132.32 254.021C1131.19 255.398 1133.91 255.184 1130.1 254.79C1129.66 254.681 1129.25 254.512 1128.86 254.29C1128.76 255.318 1128.73 256.351 1128.75 257.383C1128.75 259.172 1128.99 259.708 1127.59 260.012" fill="#1F2150"/>
<path fill-rule="evenodd" clip-rule="evenodd" d="M187.499 283.616H189.433L189.29 274.049H187.499C187.499 274.049 187.624 281.363 187.499 283.67" fill="#1F2150"/>
<path fill-rule="evenodd" clip-rule="evenodd" d="M1233.01 298.192H1233.4H1237.48L1237.63 294.615L1231.97 294.168C1232.11 294.859 1232.2 295.558 1232.25 296.26C1232.58 298.388 1231.77 297.011 1233.01 298.138" fill="#1F2150"/>
<path fill-rule="evenodd" clip-rule="evenodd" d="M1128.38 267.648L1131.96 268.363L1132.5 262.641L1128.92 261.926C1128.52 264.143 1129.24 265.359 1128.47 267.648" fill="#1F2150"/>
<path fill-rule="evenodd" clip-rule="evenodd" d="M1237.54 258.312L1238.48 258.616C1238.65 257.007 1238.59 257.096 1239.94 256.685L1240.08 259.403L1240.56 259.51C1240.72 257.329 1240.38 257.579 1241.08 256.292H1242.23C1243.37 257.919 1242.23 258.563 1243.03 260.226V259.904C1243.03 257.168 1243.7 254.36 1243.14 251.785L1237.61 251.982L1237.54 258.312ZM1238.79 252.644H1242.07L1242.17 255.97L1238.7 256.327L1238.79 252.644Z" fill="#1F2150"/>
<path fill-rule="evenodd" clip-rule="evenodd" d="M1128.5 290.304C1128.5 290.304 1128.74 290.304 1128.79 290.447C1128.97 290.894 1131.58 290.93 1132.05 290.966L1132.25 284.975C1129.67 283.813 1130.92 285.1 1128.45 284.135L1128.61 287.711H1129.36C1130.24 287.926 1129.74 287.711 1130.24 288.015C1130.06 289.571 1130.51 290.215 1128.45 290.286" fill="#1F2150"/>
<path fill-rule="evenodd" clip-rule="evenodd" d="M1175.38 256.059L1170.33 254.771L1170.12 258.169C1172.75 259.224 1175.49 259.403 1175.38 256.059Z" fill="#1F2150"/>
<path fill-rule="evenodd" clip-rule="evenodd" d="M1237.34 292.951L1246.88 293.38V289.178C1243.69 289.192 1240.5 288.965 1237.34 288.498V292.951Z" fill="#1F2150"/>
<path fill-rule="evenodd" clip-rule="evenodd" d="M1213.58 279.683C1214.44 280.326 1214.1 280.022 1215.37 280.255L1215.64 275.749L1213.42 275.373C1212.7 277.698 1213.13 275.48 1213.42 277.698C1213.51 278.355 1213.55 279.019 1213.52 279.683" fill="#1F2150"/>
<path fill-rule="evenodd" clip-rule="evenodd" d="M403.988 269.256C400.568 269.256 401.392 269.435 400.98 270.222C401.714 270.973 400.98 270.919 402.377 271.134L405.958 271.026C407.014 270.74 406.37 271.169 406.871 270.275C406.459 269.22 407.086 269.256 404.042 269.256" fill="#1F2150"/>
<path fill-rule="evenodd" clip-rule="evenodd" d="M1237.54 258.313V258.778C1239.33 259.511 1238.18 259.475 1240.02 259.404L1239.88 256.686C1238.54 257.097 1238.59 257.007 1238.43 258.617L1237.54 258.313Z" fill="#1F2150"/>
<path fill-rule="evenodd" clip-rule="evenodd" d="M119.222 137.803L175.932 158.994L177.615 187.641L119.222 167.774V137.803Z" fill="#1F2150"/>
<path d="M731.14 200.588H720.916V316.449H731.14V200.588Z" fill="#1F2150"/>
<path d="M761.169 200.588H750.945V316.449H761.169V200.588Z" fill="#1F2150"/>
<path d="M621.803 200.91H611.578V316.771H621.803V200.91Z" fill="#1F2150"/>
<path d="M586.474 203.182H576.249V319.042H586.474V203.182Z" fill="#1F2150"/>
<path fill-rule="evenodd" clip-rule="evenodd" d="M123.053 179.611L175.555 195.831L177.972 226.875L126.509 216.181L123.053 179.611Z" fill="#1F2150"/>
<path fill-rule="evenodd" clip-rule="evenodd" d="M127.477 222.529L154.659 227.644L157.649 243.023L131.309 240.626L127.477 222.529Z" fill="#1F2150"/>
<path fill-rule="evenodd" clip-rule="evenodd" d="M158.079 228.199L179.71 232.115L181.751 245.116L160.639 243.256L158.079 228.199Z" fill="#1F2150"/>
<path fill-rule="evenodd" clip-rule="evenodd" d="M775.656 315.572L775.28 324.245L791.467 324.013L791.091 331.452L812.973 331.363L813.349 339.445L523.962 340L523.64 331.005L550.804 330.629L550.535 323.28H565.147L564.968 316.305L775.656 315.572Z" fill="#1F2150"/>
<path d="M885.494 45.1348H482.598V75.5529H885.494V45.1348Z" fill="#1F2150"/>
<path d="M671.368 206.293H670.974V311.388H671.368V206.293Z" fill="#1F2150"/>
<path d="M670.974 252.143L674.144 246.742L670.974 241.342L667.858 246.742L670.974 252.143Z" fill="#F9A46B"/>
<path d="M684.798 265.842C681.233 268.416 677.858 271.243 674.699 274.3L674.591 274.407C674.305 274.121 673.929 273.746 673.553 273.424C679.945 267.684 682.506 265.341 683.759 264.143C689.131 258.778 693.697 252.519 693.697 246.797C693.674 243.931 692.719 241.151 690.976 238.875C691.126 239.713 691.198 240.563 691.19 241.414C691.19 246.779 691.19 252.323 682.667 262.247C681.467 263.624 678.799 266.557 672.729 272.673L671.744 271.689C675.4 268.244 678.727 264.466 681.682 260.405C687.358 252.269 688.684 246.815 688.684 241.361C688.684 234.816 684.852 230.506 683.491 230.506C684.601 234.015 685.133 237.681 685.066 241.361C685.085 247.276 683.481 253.083 680.429 258.152C677.826 262.788 674.65 267.078 670.974 270.92C667.304 267.073 664.128 262.784 661.519 258.152C658.467 253.083 656.863 247.276 656.882 241.361C656.815 237.681 657.347 234.015 658.457 230.506C657.096 230.506 653.282 234.816 653.282 241.361C653.282 246.725 654.59 252.269 660.266 260.405C663.226 264.462 666.553 268.239 670.204 271.689C669.935 271.957 669.559 272.351 669.219 272.673C663.167 266.503 660.481 263.624 659.281 262.247C650.758 252.323 650.758 246.815 650.758 241.414C650.751 240.569 650.823 239.725 650.972 238.893C649.233 241.16 648.266 243.923 648.215 246.779C648.215 252.501 652.799 258.724 658.153 264.125C659.353 265.323 661.931 267.701 668.378 273.406C667.984 273.782 667.661 274.103 667.339 274.39L667.232 274.282C664.066 271.224 660.685 268.398 657.114 265.824C653.331 263.032 650.263 259.386 648.161 255.184C648.161 259.923 650.668 264.34 656.13 267.558C659.801 269.674 663.246 272.161 666.408 274.98C666.469 275.046 666.542 275.101 666.623 275.141C664.435 277.247 662.075 279.167 659.568 280.881C659.854 281.417 660.176 281.918 660.499 282.401C662.916 280.38 665.208 278.145 667.446 275.91C667.769 276.178 668.091 276.571 668.431 276.893C665.369 279.897 663.059 282.025 661.484 283.599C661.885 284.062 662.329 284.487 662.809 284.869C664.277 283.277 666.3 280.988 669.255 277.716L670.222 278.699C668.025 280.957 665.968 283.345 664.062 285.852C664.512 286.147 664.985 286.404 665.477 286.621C667.083 284.104 668.879 281.713 670.849 279.468C672.849 281.71 674.675 284.101 676.31 286.621C676.802 286.393 677.28 286.136 677.743 285.852C675.825 283.35 673.762 280.961 671.565 278.699L672.55 277.716C675.486 280.988 677.51 283.277 678.996 284.869C679.426 284.475 679.874 284.046 680.303 283.599C678.656 282.025 676.418 279.897 673.356 276.893L674.34 275.91C676.538 278.196 678.858 280.363 681.288 282.401C681.63 281.914 681.941 281.406 682.219 280.881C679.724 279.15 677.366 277.231 675.164 275.141C675.272 275.033 675.325 274.98 675.379 274.98C678.541 272.161 681.985 269.674 685.657 267.558C691.029 264.34 693.626 259.923 693.626 255.184C691.546 259.401 688.474 263.052 684.672 265.824M673.642 275.141L672.657 276.124L671.619 275.087C671.995 274.711 672.317 274.39 672.657 274.103C673.004 274.479 673.374 274.832 673.767 275.158L673.642 275.141ZM670.849 277.984L669.81 276.947C670.079 276.625 670.473 276.303 670.849 275.91C671.177 276.273 671.523 276.619 671.887 276.947L670.849 277.984ZM670.849 272.369L671.887 273.352L670.849 274.39C670.473 273.996 670.132 273.674 669.81 273.352C670.224 273.063 670.613 272.74 670.974 272.387L670.849 272.369ZM669.058 274.157C669.398 274.425 669.721 274.801 670.097 275.123C669.721 275.516 669.345 275.892 669.058 276.16L668.091 275.194C668.446 274.838 668.823 274.503 669.219 274.193L669.058 274.157Z" fill="#1F2150"/>
<path d="M622.125 169.06H623.755V174.818C623.755 177.59 622.465 178.931 619.869 178.931C619.324 178.987 618.773 178.917 618.259 178.727C617.744 178.537 617.281 178.231 616.904 177.834C616.527 177.437 616.246 176.958 616.083 176.435C615.921 175.912 615.88 175.359 615.965 174.818V171.832C615.99 171.033 615.912 170.233 615.732 169.454L615.625 169.007H617.416V169.346C617.416 169.346 617.523 170.527 617.523 171.832V174.818C617.523 177.644 618.884 177.984 619.958 177.984C621.033 177.984 622.107 177.59 622.107 174.818L622.125 169.06ZM635.519 175.605C634.552 174.264 633.084 172.029 632.582 171.313C631.848 170.187 631.043 169.239 631.043 169.185L630.935 169.06H629.753H629.306L629.413 169.525C629.694 170.26 629.811 171.048 629.753 171.832V175.838C629.756 176.636 629.678 177.433 629.52 178.216L629.413 178.663H631.204L631.078 178.216C630.933 177.432 630.861 176.636 630.863 175.838V171.886C631.257 172.386 631.598 172.851 631.83 173.191L635.609 178.717H636.629V171.886C636.618 171.088 636.69 170.29 636.844 169.507L636.97 169.06H635.501V175.605H635.519ZM644.222 169.06H642.431L642.538 169.507C642.706 170.289 642.784 171.087 642.771 171.886V178.717H644.401V171.886C644.413 171.054 644.359 170.223 644.24 169.4L644.222 169.06ZM657.204 169.507C657.247 169.732 657.247 169.962 657.204 170.187C657.136 170.673 657.004 171.148 656.81 171.6C655.736 174.085 655.127 175.552 654.733 176.392C654.16 175.158 653.139 172.816 652.691 171.778C652.33 171.041 652.065 170.259 651.904 169.454V169.114H649.755L649.988 169.633C649.988 169.633 650.543 170.813 651.044 171.993C651.169 172.225 651.563 173.191 652.065 174.318C652.799 175.945 653.658 177.894 653.999 178.824L654.106 179.057H654.894L657.938 171.904C658.565 170.384 658.959 169.65 658.959 169.65L659.245 169.15H657.168L657.204 169.507ZM669.989 177.465V177.018L669.541 177.197C668.596 177.527 667.606 177.714 666.605 177.751H665.638V174.532H668.306L668.467 173.585H665.709V171.939C665.709 171.153 665.709 170.527 665.709 170.151H666.515C667.438 170.169 668.351 170.338 669.219 170.652L669.667 170.831V170.384C669.709 170.081 669.709 169.774 669.667 169.472V169.132H663.794L663.901 169.579C664.068 170.36 664.146 171.158 664.134 171.957V178.788H670.132V178.449C670.121 178.116 670.073 177.787 669.989 177.465ZM683.258 177.93H683.598V178.484L683.437 178.663C683.054 178.879 682.623 178.996 682.183 179.003C681.625 178.993 681.087 178.791 680.661 178.431C680.16 178.004 679.741 177.489 679.426 176.911C679.247 176.678 679.086 176.392 678.907 176.178C678.817 176.057 678.696 175.962 678.558 175.902C678.42 175.843 678.268 175.82 678.119 175.838C677.705 175.837 677.291 175.801 676.883 175.73V178.824H675.236V171.939C675.26 171.146 675.182 170.352 675.003 169.579V169.185L675.289 169.06C676.208 168.922 677.136 168.85 678.065 168.846H678.226C679.176 168.846 680.087 169.223 680.758 169.893C681.43 170.564 681.807 171.474 681.807 172.422C681.81 173.036 681.645 173.638 681.329 174.165C681.014 174.691 680.56 175.121 680.017 175.409C680.318 175.636 680.584 175.907 680.805 176.213C680.93 176.374 681.037 176.553 681.145 176.714C681.305 176.981 681.497 177.228 681.718 177.447C682.16 177.781 682.704 177.951 683.258 177.93ZM679.3 174.085C679.528 173.848 679.706 173.567 679.823 173.26C679.94 172.953 679.993 172.625 679.981 172.297C679.982 171.964 679.914 171.635 679.781 171.33C679.649 171.025 679.455 170.75 679.211 170.523C678.967 170.297 678.679 170.123 678.365 170.013C678.05 169.902 677.717 169.858 677.385 169.883C677.098 169.883 676.812 169.883 676.65 169.883C676.727 170.56 676.763 171.24 676.758 171.921V174.622C677.061 174.765 677.39 174.844 677.725 174.854C678.031 174.872 678.337 174.81 678.613 174.676C678.889 174.541 679.126 174.338 679.3 174.085ZM691.835 173.066C690.582 172.565 689.847 172.118 689.847 171.278C689.868 171.064 689.93 170.856 690.031 170.666C690.132 170.476 690.27 170.308 690.437 170.172C690.603 170.035 690.795 169.933 691.001 169.871C691.207 169.81 691.424 169.789 691.638 169.811C692.03 169.804 692.418 169.888 692.772 170.055C693.126 170.223 693.437 170.47 693.679 170.777C693.726 170.254 693.726 169.727 693.679 169.203C693.006 168.971 692.297 168.856 691.584 168.864C689.221 168.864 688.146 170.151 688.146 171.278C688.146 172.744 689.042 173.71 690.743 174.389C691.746 174.783 692.999 175.283 692.999 176.356C692.963 176.805 692.758 177.224 692.426 177.529C692.094 177.834 691.659 178.003 691.208 178.002C690.645 177.999 690.088 177.87 689.58 177.626C689.072 177.382 688.625 177.027 688.272 176.589C688.162 177.18 688.162 177.786 688.272 178.377C689.181 178.889 690.22 179.125 691.262 179.057C693.626 179.057 694.7 177.644 694.7 176.285C694.664 174.193 693.196 173.638 691.799 173.066H691.835ZM701.54 169.06H699.75L699.875 169.507C700.03 170.29 700.102 171.088 700.09 171.886V178.717H701.737V171.886C701.761 171.053 701.701 170.221 701.558 169.4L701.54 169.06ZM714.075 169.06H707.306V169.4C707.274 169.679 707.274 169.961 707.306 170.241V170.705L707.754 170.527C708.448 170.285 709.17 170.134 709.903 170.08V178.663H711.55V170.08C712.284 170.126 713.007 170.277 713.699 170.527L714.147 170.705V170.241C714.179 169.961 714.179 169.679 714.147 169.4L714.075 169.06ZM725.195 169.06C725.195 169.06 725.374 169.847 724.353 171.778L723.118 174.425L721.846 171.671C721.464 170.912 721.164 170.115 720.951 169.293V168.953H718.802L719.071 169.454C719.071 169.454 719.751 170.759 720.271 171.886L722.061 175.838V178.556H723.691V175.891L725.481 171.939C725.822 171.206 726.054 170.705 726.287 170.312C726.52 169.919 727.075 169.007 727.075 169.007L725.195 169.06Z" fill="#1F2150"/>
<path d="M670.974 29.1833L675.254 21.9051L670.974 14.627L666.784 21.9051L670.974 29.1833Z" fill="#1F2150"/>
<path d="M689.597 47.6211C684.793 51.0882 680.245 54.8951 675.988 59.0123L675.827 59.1732C675.386 58.7063 674.92 58.2645 674.43 57.8499V57.7605C683.043 50.0531 686.588 46.8879 688.2 45.2427C695.488 37.9645 701.594 29.5777 701.594 21.8703C701.581 17.9886 700.292 14.2187 697.923 11.1408C698.177 12.287 698.32 13.4546 698.353 14.6279C698.353 21.9061 698.353 29.3273 686.875 42.7034C685.245 44.4917 681.646 48.5152 673.481 56.7412L672.156 55.4179C677.081 50.7686 681.565 45.6742 685.55 40.1999C692.981 29.3273 694.772 21.9776 694.772 14.6279C694.772 5.81181 689.668 0 687.824 0C689.327 4.72756 690.047 9.66858 689.955 14.6279C689.981 22.6026 687.819 30.4321 683.705 37.2671C680.201 43.5066 675.923 49.2804 670.974 54.4522C666.035 49.2711 661.759 43.4988 658.242 37.2671C654.128 30.4321 651.967 22.6026 651.993 14.6279C651.91 9.66912 652.629 4.72948 654.124 0C652.333 0 647.14 5.81181 647.14 14.6279C647.14 21.9061 648.931 29.3273 656.559 40.2714C660.537 45.7355 665.021 50.8127 669.953 55.4358L668.628 56.7591C660.445 48.4437 656.846 44.5632 655.216 42.7213C643.738 29.3452 643.738 21.9239 643.738 14.6458C643.73 13.512 643.832 12.3801 644.043 11.266C641.671 14.3435 640.376 18.1124 640.354 21.9955C640.354 29.7028 646.549 38.0897 653.748 45.3679C655.377 46.9773 658.833 50.1425 667.518 57.8857V57.9751C666.999 58.4758 666.569 58.9228 666.121 59.2984L665.978 59.1374C661.711 55.0241 657.157 51.2176 652.351 47.7463C647.256 43.9937 643.121 39.0919 640.282 33.4403C640.282 39.8243 643.667 45.7792 651.026 50.1247C655.978 52.9634 660.617 56.3139 664.868 60.121C664.953 60.213 665.057 60.2861 665.172 60.3356C662.212 63.125 659.032 65.6726 655.664 67.9535C656.039 68.6639 656.458 69.3507 656.917 70.01C660.158 67.2919 663.256 64.2697 666.265 61.2654C666.728 61.6839 667.171 62.1256 667.59 62.5888C663.471 66.6302 660.427 69.4914 658.242 71.6194C658.786 72.2397 659.385 72.8084 660.033 73.3183C662.021 71.1724 664.743 68.0966 668.718 63.6796L670.043 65.0029C667.086 68.0232 664.305 71.2116 661.716 74.5521C662.327 74.9469 662.968 75.2936 663.632 75.5893C665.842 72.2265 668.302 69.0344 670.992 66.0401C673.687 69.0298 676.147 72.2223 678.351 75.5893C679.008 75.2784 679.648 74.9322 680.267 74.5521C677.679 71.2159 674.906 68.0278 671.959 65.0029L673.284 63.6796C677.241 68.0966 679.981 71.1724 681.969 73.3183C682.542 72.7997 683.132 72.2095 683.759 71.6194C681.557 69.4914 678.53 66.6302 674.412 62.5888L675.737 61.2654C678.695 64.3437 681.816 67.2626 685.084 70.01C685.55 69.3549 685.969 68.6677 686.338 67.9535C682.984 65.6205 679.812 63.0381 676.847 60.2283C676.991 60.0852 677.062 60.0137 677.134 60.0137C681.37 56.2284 685.991 52.896 690.922 50.071C698.281 45.7256 701.666 39.7707 701.666 33.3866C698.853 39.055 694.713 43.9624 689.597 47.6926M674.734 60.2104L673.409 61.5337C673.033 61.1582 672.514 60.6574 672.013 60.1389C672.455 59.6737 672.921 59.232 673.409 58.8155C673.929 59.3878 674.358 59.8348 674.734 60.1925V60.2104ZM670.974 64.0372C670.616 63.6617 670.097 63.1431 669.577 62.6424C669.953 62.1953 670.455 61.7483 670.974 61.2476C671.493 61.7483 671.941 62.2669 672.371 62.6424L670.974 64.0372ZM670.974 56.4551C671.422 56.9021 671.869 57.3492 672.371 57.7784L670.974 59.1911L669.577 57.7784C670.085 57.3776 670.553 56.9284 670.974 56.4372V56.4551ZM668.628 58.8871C669.058 59.2626 669.506 59.7633 670.025 60.2104L668.628 61.6052L667.303 60.2819C667.661 59.8348 668.109 59.3878 668.628 58.8692V58.8871Z" fill="#F9A36A"/>
</g>
<defs>
<clipPath id="clip0_1023_2">
<rect width="1257" height="340" fill="white"/>
</clipPath>
</defs>
</svg>
