<svg width="17" height="17" viewBox="0 0 17 17" fill="none" xmlns="http://www.w3.org/2000/svg">
<path d="M1 8.625C1 5.79675 1 4.38225 1.879 3.504C2.75725 2.625 4.17175 2.625 7 2.625H10C12.8282 2.625 14.2427 2.625 15.121 3.504C16 4.38225 16 5.79675 16 8.625V10.125C16 12.9532 16 14.3677 15.121 15.246C14.2427 16.125 12.8282 16.125 10 16.125H7C4.17175 16.125 2.75725 16.125 1.879 15.246C1 14.3677 1 12.9532 1 10.125V8.625Z" stroke="#1F2150" stroke-width="1.5"/>
<path opacity="0.5" d="M4.75 2.625V1.5M12.25 2.625V1.5M1.375 6.375H15.625" stroke="#1F2150" stroke-width="1.5" stroke-linecap="round"/>
<path d="M13 12.375C13 12.5739 12.921 12.7647 12.7803 12.9053C12.6397 13.046 12.4489 13.125 12.25 13.125C12.0511 13.125 11.8603 13.046 11.7197 12.9053C11.579 12.7647 11.5 12.5739 11.5 12.375C11.5 12.1761 11.579 11.9853 11.7197 11.8447C11.8603 11.704 12.0511 11.625 12.25 11.625C12.4489 11.625 12.6397 11.704 12.7803 11.8447C12.921 11.9853 13 12.1761 13 12.375ZM13 9.375C13 9.57391 12.921 9.76468 12.7803 9.90533C12.6397 10.046 12.4489 10.125 12.25 10.125C12.0511 10.125 11.8603 10.046 11.7197 9.90533C11.579 9.76468 11.5 9.57391 11.5 9.375C11.5 9.17609 11.579 8.98532 11.7197 8.84467C11.8603 8.70402 12.0511 8.625 12.25 8.625C12.4489 8.625 12.6397 8.70402 12.7803 8.84467C12.921 8.98532 13 9.17609 13 9.375ZM9.25 12.375C9.25 12.5739 9.17098 12.7647 9.03033 12.9053C8.88968 13.046 8.69891 13.125 8.5 13.125C8.30109 13.125 8.11032 13.046 7.96967 12.9053C7.82902 12.7647 7.75 12.5739 7.75 12.375C7.75 12.1761 7.82902 11.9853 7.96967 11.8447C8.11032 11.704 8.30109 11.625 8.5 11.625C8.69891 11.625 8.88968 11.704 9.03033 11.8447C9.17098 11.9853 9.25 12.1761 9.25 12.375ZM9.25 9.375C9.25 9.57391 9.17098 9.76468 9.03033 9.90533C8.88968 10.046 8.69891 10.125 8.5 10.125C8.30109 10.125 8.11032 10.046 7.96967 9.90533C7.82902 9.76468 7.75 9.57391 7.75 9.375C7.75 9.17609 7.82902 8.98532 7.96967 8.84467C8.11032 8.70402 8.30109 8.625 8.5 8.625C8.69891 8.625 8.88968 8.70402 9.03033 8.84467C9.17098 8.98532 9.25 9.17609 9.25 9.375ZM5.5 12.375C5.5 12.5739 5.42098 12.7647 5.28033 12.9053C5.13968 13.046 4.94891 13.125 4.75 13.125C4.55109 13.125 4.36032 13.046 4.21967 12.9053C4.07902 12.7647 4 12.5739 4 12.375C4 12.1761 4.07902 11.9853 4.21967 11.8447C4.36032 11.704 4.55109 11.625 4.75 11.625C4.94891 11.625 5.13968 11.704 5.28033 11.8447C5.42098 11.9853 5.5 12.1761 5.5 12.375ZM5.5 9.375C5.5 9.57391 5.42098 9.76468 5.28033 9.90533C5.13968 10.046 4.94891 10.125 4.75 10.125C4.55109 10.125 4.36032 10.046 4.21967 9.90533C4.07902 9.76468 4 9.57391 4 9.375C4 9.17609 4.07902 8.98532 4.21967 8.84467C4.36032 8.70402 4.55109 8.625 4.75 8.625C4.94891 8.625 5.13968 8.70402 5.28033 8.84467C5.42098 8.98532 5.5 9.17609 5.5 9.375Z" fill="#1F2150"/>
</svg>
