<svg width="21" height="17" viewBox="0 0 21 17" fill="none" xmlns="http://www.w3.org/2000/svg">
<path d="M9.4502 12.9625C9.4502 12.6807 9.58848 12.4105 9.83462 12.2112C10.0808 12.012 10.4146 11.9 10.7627 11.9C11.1108 11.9 11.4446 12.012 11.6908 12.2112C11.9369 12.4105 12.0752 12.6807 12.0752 12.9625C12.0752 13.2443 11.9369 13.5146 11.6908 13.7138C11.4446 13.9131 11.1108 14.025 10.7627 14.025C10.4146 14.025 10.0808 13.9131 9.83462 13.7138C9.58848 13.5146 9.4502 13.2443 9.4502 12.9625ZM9.4502 8.71252C9.4502 8.43073 9.58848 8.16048 9.83462 7.96122C10.0808 7.76197 10.4146 7.65002 10.7627 7.65002C11.1108 7.65002 11.4446 7.76197 11.6908 7.96122C11.9369 8.16048 12.0752 8.43073 12.0752 8.71252C12.0752 8.99432 11.9369 9.26457 11.6908 9.46383C11.4446 9.66308 11.1108 9.77502 10.7627 9.77502C10.4146 9.77502 10.0808 9.66308 9.83462 9.46383C9.58848 9.26457 9.4502 8.99432 9.4502 8.71252ZM9.4502 4.46252C9.4502 4.18073 9.58848 3.91048 9.83462 3.71122C10.0808 3.51197 10.4146 3.40002 10.7627 3.40002C11.1108 3.40002 11.4446 3.51197 11.6908 3.71122C11.9369 3.91048 12.0752 4.18073 12.0752 4.46252C12.0752 4.74432 11.9369 5.01457 11.6908 5.21383C11.4446 5.41308 11.1108 5.52502 10.7627 5.52502C10.4146 5.52502 10.0808 5.41308 9.83462 5.21383C9.58848 5.01457 9.4502 4.74432 9.4502 4.46252Z" fill="black"/>
</svg>
