<?xml version="1.0" standalone="no"?>
<!DOCTYPE svg PUBLIC "-//W3C//DTD SVG 20010904//EN"
 "http://www.w3.org/TR/2001/REC-SVG-20010904/DTD/svg10.dtd">
<svg version="1.0" xmlns="http://www.w3.org/2000/svg"
 width="1155.000000pt" height="1146.000000pt" viewBox="0 0 1155.000000 1146.000000"
 preserveAspectRatio="xMidYMid meet">

<g transform="translate(0.000000,1146.000000) scale(0.100000,-0.100000)"
fill="#000000" stroke="none">
<path d="M6733 11448 c20 -55 59 -214 76 -313 76 -449 45 -913 -88 -1296 -51
-149 -71 -195 -145 -341 -165 -324 -451 -739 -702 -1018 l-99 -110 -58 62
c-161 172 -292 339 -448 573 -335 498 -461 782 -540 1220 -27 144 -37 510 -20
692 15 156 43 318 77 437 14 48 23 91 20 94 -20 19 -116 -63 -180 -152 -154
-217 -217 -480 -195 -811 27 -392 152 -729 432 -1165 170 -264 374 -514 679
-833 l171 -179 -37 -36 -38 -37 -185 190 c-277 283 -504 526 -608 651 -342
407 -529 763 -592 1123 -13 73 -17 158 -18 354 0 283 4 273 -59 167 -114 -193
-162 -460 -121 -675 55 -295 248 -619 598 -1003 132 -146 247 -255 612 -582
132 -118 257 -231 278 -250 l38 -35 -40 -39 -39 -38 -94 89 c-128 123 -288
259 -463 394 -300 230 -402 315 -487 400 -136 137 -244 281 -366 484 l-54 90
6 -75 c11 -160 84 -351 188 -492 115 -154 220 -238 612 -486 64 -41 169 -113
234 -160 130 -96 362 -289 361 -300 -2 -21 -307 -276 -451 -378 -43 -31 -78
-58 -78 -62 0 -4 15 -31 34 -60 l33 -54 104 93 c57 50 174 161 260 246 170
169 165 166 219 108 l25 -26 -90 -87 c-50 -48 -168 -162 -262 -254 -95 -91
-173 -171 -173 -176 0 -11 79 -82 91 -82 3 0 116 122 250 271 l243 272 33 -39
c19 -21 32 -41 31 -45 -2 -4 -56 -65 -120 -136 -151 -166 -338 -395 -332 -405
3 -5 27 -19 53 -32 l47 -24 26 41 c68 107 372 495 390 497 17 1 294 -347 383
-482 l38 -58 49 27 c27 15 47 32 46 39 -5 22 -243 307 -353 422 l-108 113 39
40 39 39 227 -252 c124 -139 236 -262 247 -272 l22 -20 45 45 45 45 -123 120
c-68 65 -186 181 -263 256 l-140 138 37 36 36 37 174 -165 c95 -91 214 -202
265 -247 l91 -81 20 27 c11 16 26 42 35 58 l15 31 -116 86 c-116 86 -254 199
-365 300 l-58 53 128 106 c234 193 367 287 685 483 367 225 558 503 593 861
l7 70 -52 -90 c-169 -290 -363 -512 -620 -711 -309 -237 -387 -299 -510 -406
-74 -64 -169 -149 -211 -187 l-76 -70 -37 38 -37 38 293 264 c345 311 451 411
573 539 250 262 418 487 530 710 95 190 134 323 142 490 8 166 -44 379 -131
534 -61 110 -61 111 -61 -147 -1 -315 -30 -489 -120 -717 -102 -261 -324 -592
-599 -896 -114 -126 -678 -714 -685 -714 -3 0 -22 17 -43 37 l-38 37 178 180
c615 626 978 1220 1083 1769 29 148 36 443 15 563 -49 285 -210 570 -351 624
-21 8 -26 7 -22 -2z m-920 -3236 l37 -38 -38 -37 -38 -37 -39 40 -39 40 34 35
c19 19 37 35 40 35 3 0 23 -17 43 -38z m-136 -124 c18 -18 33 -37 33 -43 0 -6
-16 -26 -35 -45 l-35 -34 -40 39 -40 39 37 38 c20 21 39 38 42 38 3 0 20 -14
38 -32z m270 -85 l-37 -37 -40 39 -40 39 37 38 37 38 41 -40 40 -40 -38 -37z
m-128 -60 l31 -37 -37 -38 -37 -38 -40 40 -40 40 34 35 c19 19 39 35 46 35 7
0 26 -17 43 -37z"/>
<path d="M5070 5734 c-236 -15 -381 -28 -475 -40 -130 -17 -368 -55 -376 -60
-3 -2 12 -54 33 -116 49 -144 84 -312 103 -508 14 -131 15 -303 12 -1115 -3
-929 -4 -963 -24 -1050 -11 -50 -35 -119 -53 -154 l-32 -64 79 6 c43 4 173 9
288 12 116 4 220 8 233 11 l23 5 -4 1157 c-3 993 -6 1173 -20 1267 -20 139
-35 210 -53 258 -8 20 -14 41 -14 46 0 12 145 30 345 42 608 35 1075 -108
1365 -417 222 -238 331 -550 331 -954 0 -209 -21 -344 -77 -503 -141 -391
-460 -701 -873 -847 l-105 -37 310 -5 309 -5 80 34 c304 129 566 376 715 672
167 335 192 788 65 1176 -208 635 -810 1073 -1615 1175 -87 11 -472 21 -570
14z"/>
<path d="M8834 5693 c12 -30 54 -304 66 -423 6 -63 13 -131 16 -150 3 -19 9
-474 14 -1010 8 -1002 9 -1015 50 -1195 24 -107 67 -225 120 -330 51 -102 58
-111 90 -118 55 -12 580 -79 591 -75 5 2 -12 19 -38 38 -102 76 -206 228 -253
370 -50 152 -50 160 -50 1576 l0 1321 -77 7 c-42 3 -179 6 -306 6 -213 0 -229
-1 -223 -17z"/>
<path d="M1145 5669 c-394 -61 -724 -275 -865 -562 -58 -118 -81 -218 -81
-354 0 -330 125 -570 416 -795 124 -97 256 -173 591 -342 421 -211 583 -312
707 -439 172 -177 191 -433 46 -624 -37 -50 -108 -109 -174 -147 l-30 -17 55
6 c30 4 169 21 308 39 213 28 255 36 267 52 33 41 106 203 126 279 28 104 31
296 5 400 -64 261 -273 487 -656 707 -52 30 -230 124 -395 208 -348 178 -485
257 -587 338 -166 133 -229 248 -229 422 0 103 18 167 69 246 113 174 324 278
594 291 258 13 503 -55 693 -192 67 -49 184 -165 240 -240 l38 -50 -7 125
c-10 183 -52 435 -78 468 -19 23 -192 99 -288 125 -173 48 -261 60 -490 63
-118 1 -242 -2 -275 -7z"/>
<path d="M11028 4298 l-3 -1363 -22 -80 c-13 -44 -44 -123 -70 -175 -39 -79
-63 -111 -138 -186 -96 -97 -174 -148 -287 -186 l-63 -22 45 -8 c25 -5 153
-28 285 -52 l240 -43 72 59 c193 157 344 411 407 681 45 194 46 223 46 1506
l0 1218 -157 6 c-87 4 -202 7 -255 7 l-98 0 -2 -1362z"/>
<path d="M66 3004 c-30 -128 -51 -283 -60 -436 l-5 -97 57 -48 c79 -67 169
-130 287 -198 l100 -57 255 46 c140 25 289 51 330 58 l75 12 -40 9 c-378 83
-695 352 -963 816 -5 9 -18 -30 -36 -105z"/>
<path d="M6093 741 c-24 -4 -45 -9 -47 -12 -3 -3 -1 -56 4 -119 5 -63 10 -222
10 -352 l0 -238 55 0 55 0 0 114 0 115 58 -6 c70 -7 94 -21 128 -76 33 -53
101 -124 136 -143 33 -17 117 -18 153 -2 16 7 25 19 25 35 0 19 -5 23 -30 23
-54 0 -107 36 -160 109 -28 38 -56 71 -63 74 -7 3 4 20 29 43 67 63 87 114 82
203 -9 161 -111 242 -302 240 -50 -1 -110 -5 -133 -8z m210 -75 c39 -16 82
-61 96 -99 29 -75 -1 -186 -61 -229 -36 -25 -116 -35 -147 -19 -20 11 -21 18
-21 186 l0 175 50 0 c28 0 65 -6 83 -14z"/>
<path d="M7156 736 c-52 -20 -86 -45 -114 -87 -20 -29 -23 -44 -20 -96 6 -100
37 -135 176 -204 136 -66 172 -97 172 -145 0 -77 -51 -124 -135 -124 -55 0
-101 18 -167 65 l-49 36 3 -68 3 -67 55 -18 c62 -19 205 -24 259 -8 117 33
179 153 137 263 -23 62 -57 90 -182 151 -127 62 -156 89 -156 141 0 60 57 105
132 105 52 0 77 -12 116 -57 l32 -36 7 51 c8 59 1 87 -23 97 -37 15 -206 16
-246 1z"/>
<path d="M1675 698 c3 -18 10 -139 14 -268 7 -217 9 -238 30 -280 51 -100 106
-132 237 -138 114 -5 175 12 227 66 68 70 71 86 75 385 l3 267 -54 0 -54 0 -6
-252 c-3 -152 -10 -269 -17 -293 -7 -21 -27 -54 -46 -73 -34 -34 -35 -34 -110
-30 -73 3 -77 5 -109 40 -19 20 -38 54 -43 75 -6 21 -13 143 -16 270 -4 128
-9 240 -12 248 -5 11 -22 15 -66 15 l-60 0 7 -32z"/>
<path d="M2687 688 c13 -35 16 -89 17 -283 1 -132 -2 -273 -7 -312 l-7 -73 61
0 61 0 -6 33 c-3 17 -8 131 -12 252 l-5 220 20 -24 c12 -13 80 -109 153 -215
178 -259 184 -266 217 -266 l28 0 6 318 c3 174 10 334 15 355 l10 37 -54 0
-54 0 -2 -236 -3 -236 -54 79 c-30 43 -104 149 -164 236 l-109 157 -64 0 -63
0 16 -42z"/>
<path d="M3655 703 c3 -16 9 -175 12 -355 l5 -328 54 0 54 0 0 333 c0 182 -3
342 -6 355 -6 20 -13 22 -66 22 l-60 0 7 -27z"/>
<path d="M4215 658 c19 -40 90 -201 158 -358 l123 -285 33 0 32 0 128 300 c70
165 140 323 154 352 15 29 27 55 27 58 0 3 -31 5 -69 5 l-69 0 -4 -62 c-3 -51
-20 -101 -87 -258 -46 -107 -86 -198 -90 -203 -13 -14 -211 462 -211 508 0 12
-15 15 -80 15 l-79 0 34 -72z"/>
<path d="M5216 713 c4 -10 10 -170 12 -355 l4 -338 219 0 219 0 0 65 0 64 -42
-15 c-41 -15 -207 -43 -255 -44 -23 0 -23 2 -23 120 l0 120 94 0 c99 0 106 3
106 51 0 17 -8 19 -100 19 l-100 0 0 114 c0 63 -3 122 -7 132 -6 16 1 17 89
10 53 -3 121 -15 152 -26 l56 -19 0 60 0 59 -216 0 c-202 0 -216 -1 -208 -17z"/>
<path d="M7877 718 c4 -7 10 -166 13 -353 l5 -340 58 -3 57 -3 0 309 c0 170
-3 330 -6 356 l-7 46 -64 0 c-49 0 -62 -3 -56 -12z"/>
<path d="M8420 674 c0 -54 1 -56 23 -50 49 15 162 34 169 30 4 -3 8 -147 8
-320 l0 -314 55 0 55 0 0 320 0 321 38 -7 c20 -3 61 -12 91 -19 30 -8 58 -12
63 -9 4 3 8 27 8 55 l0 49 -255 0 -255 0 0 -56z"/>
<path d="M9388 493 l116 -238 6 -115 5 -115 58 -3 57 -3 0 102 0 102 92 199
c50 110 106 224 124 254 l33 54 -70 0 c-67 0 -69 -1 -69 -25 0 -13 -11 -53
-24 -87 -33 -87 -117 -268 -125 -268 -10 0 -140 285 -153 336 l-12 44 -77 0
-77 0 116 -237z"/>
</g>
</svg>
